<svg id="Group_26" data-name="Group 26" xmlns="http://www.w3.org/2000/svg" width="396.805" height="328" viewBox="0 0 396.805 328">
  <ellipse id="Ellipse_66" data-name="Ellipse 66" cx="177.5" cy="164" rx="177.5" ry="164" transform="translate(41.805)" fill="#202a85" opacity="0.78"/>
  <g id="at_home" data-name="at home" transform="translate(0 83.677)">
    <ellipse id="Ellipse_62" data-name="Ellipse 62" cx="13.722" cy="27.998" rx="13.722" ry="27.998" transform="translate(71.568 126.983)" fill="#e6e6e6"/>
    <path id="Path_366" data-name="Path 366" d="M360.558,587.859c-5.5-32.973-.055-65.827,0-66.154l1.069.181c-.055.326-5.464,33.007,0,65.8Z" transform="translate(-274.002 -387.052)" fill="#3f3d56"/>
    <rect id="Rectangle_101" data-name="Rectangle 101" width="14.072" height="1.084" transform="translate(84.96 155.596) rotate(-28.142)" fill="#3f3d56"/>
    <rect id="Rectangle_102" data-name="Rectangle 102" width="1.084" height="14.072" transform="translate(71.865 153.239) rotate(-61.842)" fill="#3f3d56"/>
    <rect id="Rectangle_103" data-name="Rectangle 103" width="22.49" height="77.85" transform="translate(339.54 1.869)" fill="#3f3d56"/>
    <path id="Path_367" data-name="Path 367" d="M540.257,65.073,485.558,0l-109.8,1-66.6,64.874,1.346.865h-.481V201.682H540.11V66.743Z" transform="translate(-163.375)" fill="#3f3d56"/>
    <path id="Path_368" data-name="Path 368" d="M606.789.294,538.455,80.409V201.838H661.284V65.169Z" transform="translate(-284.549 -0.155)" fill="#536dfe"/>
    <rect id="Rectangle_104" data-name="Rectangle 104" width="25.085" height="22.172" transform="translate(303.21 134.531)" fill="#3f3d56"/>
    <rect id="Rectangle_105" data-name="Rectangle 105" width="25.085" height="21.82" transform="translate(303.21 96.153)" fill="#3f3d56"/>
    <rect id="Rectangle_106" data-name="Rectangle 106" width="25.085" height="22.172" transform="translate(303.21 134.531)" fill="#fff"/>
    <rect id="Rectangle_107" data-name="Rectangle 107" width="25.085" height="21.82" transform="translate(303.21 96.153)" fill="#fff"/>
    <path id="Path_369" data-name="Path 369" d="M682.079,644.183s.538-11.268,11.562-9.958" transform="translate(-445.208 -446.457)" fill="#e6e6e6"/>
    <circle id="Ellipse_63" data-name="Ellipse 63" cx="5.517" cy="5.517" r="5.517" transform="translate(228.239 175.968)" fill="#536dfe"/>
    <rect id="Rectangle_108" data-name="Rectangle 108" width="1.557" height="10.902" transform="translate(232.858 190.777)" fill="#e6e6e6"/>
    <ellipse id="Ellipse_64" data-name="Ellipse 64" cx="26.838" cy="54.76" rx="26.838" ry="54.76" transform="translate(25.482 57.041)" fill="#536dfe"/>
    <path id="Path_370" data-name="Path 370" d="M291.671,518.334c-10.734-64.406-.108-128.578,0-129.218l1.069.181c-.108.639-10.7,64.638,0,128.859Z" transform="translate(-236.361 -316.984)" fill="#3f3d56"/>
    <rect id="Rectangle_109" data-name="Rectangle 109" width="27.523" height="1.084" transform="translate(51.923 113.464) rotate(-28.142)" fill="#3f3d56"/>
    <rect id="Rectangle_110" data-name="Rectangle 110" width="1.084" height="27.523" transform="translate(26.311 107.944) rotate(-61.842)" fill="#3f3d56"/>
    <ellipse id="Ellipse_65" data-name="Ellipse 65" cx="36.726" cy="74.935" rx="36.726" ry="74.935" transform="translate(79.158 3.908)" fill="#536dfe"/>
    <path id="Path_371" data-name="Path 371" d="M427.246,465.056c-14.684-88.1-.148-175.882,0-176.759l1.069.181c-.148.875-14.653,88.483,0,176.4Z" transform="translate(-307.074 -263.706)" fill="#3f3d56"/>
    <rect id="Rectangle_111" data-name="Rectangle 111" width="37.663" height="1.084" transform="translate(115.435 81.294) rotate(-28.142)" fill="#3f3d56"/>
    <rect id="Rectangle_112" data-name="Rectangle 112" width="1.084" height="37.663" transform="matrix(0.472, -0.882, 0.882, 0.472, 80.385, 73.385)" fill="#3f3d56"/>
    <rect id="Rectangle_113" data-name="Rectangle 113" width="396.333" height="0.943" transform="translate(0 200.79)" fill="#3f3d56"/>
    <rect id="Rectangle_114" data-name="Rectangle 114" width="25.085" height="22.172" transform="translate(191.731 128.647)" fill="#3f3d56"/>
    <rect id="Rectangle_115" data-name="Rectangle 115" width="25.085" height="21.82" transform="translate(191.731 90.27)" fill="#3f3d56"/>
    <rect id="Rectangle_116" data-name="Rectangle 116" width="25.085" height="22.172" transform="translate(191.731 128.647)" fill="#fff"/>
    <rect id="Rectangle_117" data-name="Rectangle 117" width="25.085" height="21.82" transform="translate(191.731 90.27)" fill="#fff"/>
  </g>
</svg>
