<svg xmlns="http://www.w3.org/2000/svg" xmlns:xlink="http://www.w3.org/1999/xlink" width="786.718" height="581.272" viewBox="0 0 786.718 581.272">
  <defs>
    <linearGradient id="linear-gradient" x1="0.5" y1="1" x2="0.5" gradientUnits="objectBoundingBox">
      <stop offset="0" stop-color="gray" stop-opacity="0.251"/>
      <stop offset="0.54" stop-color="gray" stop-opacity="0.122"/>
      <stop offset="1" stop-color="gray" stop-opacity="0.102"/>
    </linearGradient>
    <linearGradient id="linear-gradient-2" x1="0.5" y1="1" x2="0.5" y2="0" xlink:href="#linear-gradient"/>
  </defs>
  <g id="Group_30" data-name="Group 30" transform="translate(-990.282 -362.595)">
    <g id="undraw_doctors_hwty" transform="translate(990.277 362.592)">
      <path id="Path_151" data-name="Path 151" d="M91.685,356.76h68.362v93.186H96.683c-.162.963-.323,1.92-.505,2.883h63.869v75.139a.96.96,0,0,1-.317-.121q-2.695-1.071-5.389-2.27c-.384-.175-.761-.357-1.152-.525q-2.695-1.273-5.389-2.695c-.626-.33-1.253-.674-1.866-1.024a112.117,112.117,0,0,1-26.879-20.924c-.236-.222-.451-.465-.674-.674-1.091-1.186-2.162-2.385-3.2-3.611-.391-.451-.768-.909-1.152-1.347-1.226-1.5-2.412-3.045-3.557-4.6-.175-.236-.337-.465-.505-.674a99.511,99.511,0,0,1-11.587-20.951c-.094-.222-.182-.465-.269-.674-.93-2.358-1.772-4.749-2.5-7.188-.31-1.017-.613-2.021-.869-3.079-.094-.3-.168-.613-.249-.916-3.786-14.921-4.224-30.429-4.224-45.862v-5.389q.081-9.451.222-18.883.054-2.425.1-4.871.141-6.191.4-12.409c.04-1.145.094-2.3.155-3.436q.04-.99.1-1.981Q91.435,360.29,91.685,356.76Z" transform="translate(-40.044 -128.93)" fill="#ec4b4b" opacity="0.1"/>
      <path id="Path_152" data-name="Path 152" d="M175.682,179.785h-37.5a285.46,285.46,0,0,1,19.947-27.445c5.578-6.844,11.452-13.513,17.555-19.94Z" transform="translate(-55.68 -55.71)" fill="#ec4b4b" opacity="0.1"/>
      <path id="Path_153" data-name="Path 153" d="M160.837,207v98H92.69c0-.283.04-.573.067-.855.061-.775.121-1.543.189-2.317.067-.9.155-1.805.243-2.695s.175-1.967.283-2.944.2-1.967.3-2.944.216-1.954.337-2.924.229-1.954.364-2.924c.1-.8.2-1.61.317-2.418.155-1.138.317-2.277.485-3.409a3.243,3.243,0,0,1,.081-.512,235.059,235.059,0,0,1,5.012-24.6,182.161,182.161,0,0,1,8.454-24.925A187.185,187.185,0,0,1,121.543,207Z" transform="translate(-40.834 -80.056)" fill="#ec4b4b" opacity="0.1"/>
      <path id="Path_154" data-name="Path 154" d="M218.09,246.39v93.186H364.111V246.39Zm0,96.07v80.03c.835.168,1.657.337,2.486.478,1.112.216,2.23.411,3.368.579l.674.094c.445.074.9.135,1.347.189,1.125.162,2.25.283,3.368.391.525.054,1.071.094,1.6.141l1.3.094h0c.707.054,1.408.094,2.109.121.431,0,.862.034,1.3.047s.674,0,1.024,0h3.746c.579,0,1.159,0,1.731-.054h.034a10.3,10.3,0,0,0,1.206-.047,2.946,2.946,0,0,0,.344,0,8.124,8.124,0,0,0,1-.04,1.407,1.407,0,0,1,.229,0c.748-.047,1.5-.108,2.263-.175s1.482-.148,2.243-.229l1.529-.189a134.15,134.15,0,0,0,18.492-3.934c13.628-3.8,26.946-9.115,40.567-13,17.6-5.019,37.051-7.491,54.054-1.381V342.46ZM364.111,142.634V18.574a187.633,187.633,0,0,0-47.439,5.558C279.7,33.422,246.491,53.571,218.09,79.3v63.323h7.35V145.5h-7.35v98H364.111v-98H255.5v-2.883Zm187.6-41.908a60.45,60.45,0,0,1-26.475-7.693c-15.723-8.549-28.293-21.766-42.332-32.908C453.734,36.9,417.558,22.886,380.447,19.41V142.634H588.882l.519-.546Zm18.99-3.368,20.135,22.1V91.545c-6.777.856-12.678,2.843-20.135,5.787Zm20.135,345v-99.9H547.9c-.108-.424-.229-.856-.364-1.287.128.431.243.862.357,1.287H380.447V414.7c1.59,1.179,3.159,2.425,4.716,3.678h0q2.519,2.061,5.005,4.17l1.671,1.381c.8.674,1.617,1.347,2.425,1.987q2.432,1.96,4.9,3.88,1.233.97,2.479,1.906a338.234,338.234,0,0,0,41.524,27.155c3.247,1.812,6.528,3.557,9.829,5.261q3.294,1.7,6.635,3.328,5.012,2.445,10.1,4.716h0a370.913,370.913,0,0,0,98.353,28.644q11.3,1.664,22.709,2.627V442.349h.674ZM380.447,145.5v98H590.835v-98Zm0,100.873v93.2H590.835V246.39ZM607.165,91.41V122.6l25.693-28.206Q620.085,92.286,607.165,91.41Zm0,154.98v93.186H811.786V246.39Zm203.9,203.362.721-107.293H607.165V504.52a368.7,368.7,0,0,0,39.543-.478h.229q9.431-.606,18.775-1.725h.141a345.241,345.241,0,0,0,96.487-25.774M851.262,261.7q-1.165-2.695-2.391-5.389c-1.522-3.368-3.126-6.642-4.783-9.909H828.123v93.18h40.359C868.447,313.183,861.765,286.237,851.262,261.7Zm-23.14,80.764v92.29a132.064,132.064,0,0,0,27.889-37.617c8.32-17.171,12.126-35.751,12.442-54.68Zm0-123.224v24.251h14.47a263.489,263.489,0,0,0-14.47-24.251ZM689.35,109.7c-1.064-.411-2.136-.822-3.207-1.213A291.118,291.118,0,0,0,651.585,98.1l-39.328,43.154h0l-.768.829.505.546H751.966A299.036,299.036,0,0,0,689.35,109.7Zm66.725,35.8H610.034l-2.87,2.621v95.382H811.786V197.294a291.347,291.347,0,0,0-55.711-51.79Z" transform="translate(-81.758 -18.56)" fill="#ec4b4b" opacity="0.1"/>
      <path id="Path_155" data-name="Path 155" d="M160.837,280.39v48.564H92.69c0-.283.04-.573.067-.856.061-.775.121-1.543.189-2.317.067-.9.155-1.805.243-2.695s.175-1.967.283-2.944.2-1.967.3-2.944.216-1.954.337-2.924.229-1.954.364-2.924c.1-.8.2-1.61.317-2.418.155-1.138.317-2.277.485-3.409a3.243,3.243,0,0,1,.081-.512,235.059,235.059,0,0,1,5.012-24.6Z" transform="translate(-40.834 -104.007)" fill="#ec4b4b" opacity="0.1"/>
      <path id="Path_156" data-name="Path 156" d="M91.685,356.76h68.362v93.186H96.683c-.162.963-.323,1.92-.505,2.883h63.869v75.139a.96.96,0,0,1-.317-.121q-2.695-1.071-5.389-2.27c-.384-.175-.761-.357-1.152-.525q-2.695-1.273-5.389-2.695c-.626-.33-1.253-.674-1.866-1.024a112.117,112.117,0,0,1-26.879-20.924c-.236-.222-.451-.465-.674-.674-1.091-1.186-2.162-2.385-3.2-3.611-.391-.451-.768-.909-1.152-1.347-1.226-1.5-2.412-3.045-3.557-4.6-.175-.236-.337-.465-.505-.674a99.511,99.511,0,0,1-11.587-20.951c-.094-.222-.182-.465-.269-.674-.93-2.358-1.772-4.749-2.5-7.188-.31-1.017-.613-2.021-.869-3.079-.094-.3-.168-.613-.249-.916-3.786-14.921-4.224-30.429-4.224-45.862v-5.389q.081-9.451.222-18.883.054-2.425.1-4.871.141-6.191.4-12.409c.04-1.145.094-2.3.155-3.436q.04-.99.1-1.981Q91.435,360.29,91.685,356.76Z" transform="translate(-40.044 -128.93)" fill="#ec4b4b" opacity="0.1"/>
      <path id="Path_157" data-name="Path 157" d="M253.536,195.508v83.964H202.13V195.508h7.329V167.08h30.085v28.428Z" transform="translate(-65.805 -54.525)" fill="#ec4b4b" opacity="0.1"/>
      <rect id="Rectangle_51" data-name="Rectangle 51" width="51.4" height="93.186" transform="translate(136.325 227.823)" fill="#ec4b4b" opacity="0.1"/>
      <path id="Path_158" data-name="Path 158" d="M218.09,499.37h51.4v77.47A133.143,133.143,0,0,1,251,580.767c-.512.074-1.017.135-1.529.189-.754.088-1.5.168-2.25.236l-2.257.182h-.229l-1,.054h-.344c-.4,0-.8.047-1.206.054h-.034c-.579,0-1.152.041-1.731.054h-4.769a10.6,10.6,0,0,1-1.307-.054q-1.037-.04-2.1-.121h0l-1.3-.094c-.539-.04-1.078-.094-1.61-.148q-1.7-.148-3.368-.384l-1.347-.189-.674-.094c-1.125-.168-2.243-.357-3.368-.573-.835-.148-1.657-.317-2.486-.492Z" transform="translate(-81.758 -175.47)" fill="#ec4b4b" opacity="0.1"/>
      <rect id="Rectangle_52" data-name="Rectangle 52" width="42.386" height="93.873" transform="translate(466.684 131.067)" fill="#ec4b4b" opacity="0.1"/>
      <path id="Path_159" data-name="Path 159" d="M653.538,338.19v93.193H443.15v-40.2H555.212V414.9h55.933V338.19Z" transform="translate(-144.461 -110.367)" fill="#ec4b4b" opacity="0.1"/>
      <path id="Path_160" data-name="Path 160" d="M670.155,598.67a3.809,3.809,0,0,1-.674-.04v61.134q-11.391-.936-22.7-2.621a371.4,371.4,0,0,1-98.394-28.63q-13.561-6.117-26.569-13.332A339.468,339.468,0,0,1,480.3,588.026q-4.972-3.8-9.795-7.767c-2.23-1.846-4.439-3.732-6.689-5.558-1.549-1.26-3.119-2.506-4.716-3.692V498.747H626.543c-.121-.431-.229-.855-.35-1.287.128.431.249.856.357,1.287h42.938v99.876C669.711,598.629,669.933,598.649,670.155,598.67Z" transform="translate(-160.411 -174.847)" fill="#ec4b4b" opacity="0.1"/>
      <path id="Path_161" data-name="Path 161" d="M922.13,186.2H894.51v-8.582h12.375V152.05q1.61.593,3.207,1.213v24.353h12.032Z" transform="translate(-302.506 -62.123)" fill="#ec4b4b" opacity="0.1"/>
      <path id="Path_162" data-name="Path 162" d="M956.417,305H820.811a.087.087,0,0,0,.04,0h-25.2V211.129h7.127v69.386h32.565V239.423h26.912V207h27.62v32.443h26.9v41.093h39.651Z" transform="translate(-270.244 -80.056)" fill="#ec4b4b" opacity="0.1"/>
      <path id="Path_163" data-name="Path 163" d="M795.65,356.76v93.186H956.424V356.76Zm204.393,202.87.229-73.765H956.424V452.857H795.65V614.89a368.7,368.7,0,0,0,39.543-.478h.229q9.431-.606,18.775-1.725h.141a345.239,345.239,0,0,0,96.487-25.774" transform="translate(-270.244 -128.93)" fill="#ec4b4b" opacity="0.1"/>
      <path id="Path_164" data-name="Path 164" d="M1126.479,499.37h37.5c-.323,18.923-4.123,37.509-12.442,54.674a132,132,0,0,1-27.889,37.624V532.386h2.829Z" transform="translate(-377.286 -175.47)" fill="#ec4b4b" opacity="0.1"/>
      <path id="Path_165" data-name="Path 165" d="M1165.379,457.361H1127.85V379.48h20.31C1158.663,404.021,1165.346,430.967,1165.379,457.361Z" transform="translate(-378.656 -136.344)" fill="#ec4b4b" opacity="0.1"/>
      <rect id="Rectangle_53" data-name="Rectangle 53" width="22.709" height="29.432" transform="translate(486.368 157.164)" fill="#ec4b4b" opacity="0.1"/>
      <rect id="Rectangle_54" data-name="Rectangle 54" width="22.709" height="6.777" transform="translate(486.368 218.17)" fill="#ec4b4b" opacity="0.1"/>
      <rect id="Rectangle_55" data-name="Rectangle 55" width="22.709" height="19.772" transform="translate(486.368 227.823)" fill="#ec4b4b" opacity="0.1"/>
      <rect id="Rectangle_56" data-name="Rectangle 56" width="22.709" height="29.432" transform="translate(486.368 279.176)" fill="#ec4b4b" opacity="0.1"/>
      <rect id="Rectangle_57" data-name="Rectangle 57" width="22.709" height="29.432" transform="translate(486.368 340.182)" fill="#ec4b4b" opacity="0.1"/>
      <path id="Path_166" data-name="Path 166" d="M760.409,636.688a3.271,3.271,0,0,1,.674.047,3.809,3.809,0,0,1-.674-.04v6.838H737.7V614.1h22.709Z" transform="translate(-251.332 -212.912)" fill="#ec4b4b" opacity="0.1"/>
      <path id="Path_167" data-name="Path 167" d="M760.409,704.65v22.729q-11.4-.936-22.709-2.62V704.65Z" transform="translate(-251.332 -242.463)" fill="#ec4b4b" opacity="0.1"/>
      <rect id="Rectangle_58" data-name="Rectangle 58" width="97.323" height="2.162" transform="translate(298.689 318.854)" fill="#ec4b4b" opacity="0.1"/>
      <rect id="Rectangle_59" data-name="Rectangle 59" width="97.323" height="8.286" transform="translate(298.689 323.893)" fill="#ec4b4b" opacity="0.1"/>
      <rect id="Rectangle_60" data-name="Rectangle 60" width="97.323" height="13.325" transform="translate(298.689 359.341)" fill="#ec4b4b" opacity="0.1"/>
      <path id="Path_168" data-name="Path 168" d="M558.707,612.08V625.4H482.584q-4.972-3.786-9.795-7.774c-2.236-1.839-4.446-3.725-6.689-5.551Z" transform="translate(-162.696 -212.253)" fill="#ec4b4b" opacity="0.1"/>
      <path id="Path_169" data-name="Path 169" d="M586.805,672.17v13.359h-8.037q-13.56-6.117-26.569-13.332Z" transform="translate(-190.794 -231.863)" fill="#ec4b4b" opacity="0.1"/>
      <rect id="Rectangle_61" data-name="Rectangle 61" width="19.159" height="19.159" transform="translate(564.95 236.857)" fill="#ec4b4b" opacity="0.1"/>
      <rect id="Rectangle_62" data-name="Rectangle 62" width="19.159" height="19.159" transform="translate(150.128 147.591)" fill="#ec4b4b" opacity="0.1"/>
      <rect id="Rectangle_63" data-name="Rectangle 63" width="19.159" height="19.159" transform="translate(150.128 192.093)" fill="#ec4b4b" opacity="0.1"/>
      <rect id="Rectangle_64" data-name="Rectangle 64" width="19.159" height="19.159" transform="translate(150.128 236.594)" fill="#ec4b4b" opacity="0.1"/>
      <rect id="Rectangle_65" data-name="Rectangle 65" width="19.159" height="19.159" transform="translate(150.128 281.089)" fill="#ec4b4b" opacity="0.1"/>
      <rect id="Rectangle_66" data-name="Rectangle 66" width="19.159" height="19.159" transform="translate(150.128 325.591)" fill="#ec4b4b" opacity="0.1"/>
      <rect id="Rectangle_67" data-name="Rectangle 67" width="19.159" height="19.159" transform="translate(150.128 370.092)" fill="#ec4b4b" opacity="0.1"/>
      <rect id="Rectangle_68" data-name="Rectangle 68" width="19.159" height="19.159" transform="translate(638.088 236.857)" fill="#ec4b4b" opacity="0.1"/>
      <rect id="Rectangle_69" data-name="Rectangle 69" width="19.159" height="19.159" transform="translate(564.95 284.114)" fill="#ec4b4b" opacity="0.1"/>
      <rect id="Rectangle_70" data-name="Rectangle 70" width="19.159" height="19.159" transform="translate(638.088 284.114)" fill="#ec4b4b" opacity="0.1"/>
      <rect id="Rectangle_71" data-name="Rectangle 71" width="19.159" height="19.159" transform="translate(564.95 331.364)" fill="#ec4b4b" opacity="0.1"/>
      <rect id="Rectangle_72" data-name="Rectangle 72" width="19.159" height="19.159" transform="translate(638.088 331.364)" fill="#ec4b4b" opacity="0.1"/>
      <rect id="Rectangle_73" data-name="Rectangle 73" width="19.159" height="19.159" transform="translate(564.95 378.62)" fill="#ec4b4b" opacity="0.1"/>
      <rect id="Rectangle_74" data-name="Rectangle 74" width="19.159" height="19.159" transform="translate(638.088 378.62)" fill="#ec4b4b" opacity="0.1"/>
      <rect id="Rectangle_75" data-name="Rectangle 75" width="19.159" height="19.159" transform="translate(564.95 425.877)" fill="#ec4b4b" opacity="0.1"/>
      <rect id="Rectangle_76" data-name="Rectangle 76" width="19.159" height="19.159" transform="translate(638.088 425.877)" fill="#ec4b4b" opacity="0.1"/>
      <path id="Path_170" data-name="Path 170" d="M838.4,714.685V702.33h19.152v10.6Z" transform="translate(-273.45 -229.203)" fill="#ec4b4b" opacity="0.1"/>
      <path id="Path_171" data-name="Path 171" d="M96.53,316.91v10.96h65.56V316.91Zm6.528,10.273H97.668V317.6h5.389Zm6.528,0H104.2V317.6h5.389Zm6.514,0H110.71V317.6H116.1Zm6.528,0h-5.389V317.6h5.389Zm6.521,0h-5.389V317.6h5.389Zm6.528,0h-5.389V317.6h5.389Zm6.528,0h-5.389V317.6H142.2Zm6.521,0h-5.389V317.6h5.389Zm6.521,0h-5.389V317.6h5.389Zm6.528,0h-5.389V317.6h5.389Z" transform="translate(-42.087 -115.925)" fill="#ec4b4b" opacity="0.1"/>
      <path id="Path_172" data-name="Path 172" d="M96.53,364.27v10.96h65.56V364.27Zm6.528,10.273H97.668v-9.579h5.389Zm6.528,0H104.2v-9.579h5.389Zm6.514,0H110.71v-9.579H116.1Zm6.528,0h-5.389v-9.579h5.389Zm6.521,0h-5.389v-9.579h5.389Zm6.528,0h-5.389v-9.579h5.389Zm6.528,0h-5.389v-9.579H142.2Zm6.521,0h-5.389v-9.579h5.389Zm6.521,0h-5.389v-9.579h5.389Zm6.528,0h-5.389v-9.579h5.389Z" transform="translate(-42.087 -131.381)" fill="#ec4b4b" opacity="0.1"/>
      <path id="Path_173" data-name="Path 173" d="M96.53,411.64v10.954h65.56V411.64Zm6.528,10.26H97.668V412.32h5.389Zm6.528,0H104.2V412.32h5.389Zm6.514,0H110.71V412.32H116.1Zm6.528,0h-5.389V412.32h5.389Zm6.521,0h-5.389V412.32h5.389Zm6.528,0h-5.389V412.32h5.389Zm6.528,0h-5.389V412.32H142.2Zm6.521,0h-5.389V412.32h5.389Zm6.521,0h-5.389V412.32h5.389Zm6.528,0h-5.389V412.32h5.389Z" transform="translate(-42.087 -146.84)" fill="#ec4b4b" opacity="0.1"/>
      <path id="Path_174" data-name="Path 174" d="M96.53,459v10.954h65.56V459Zm6.528,10.266H97.668v-9.593h5.389Zm6.528,0H104.2v-9.593h5.389Zm6.514,0H110.71v-9.593H116.1Zm6.528,0h-5.389v-9.593h5.389Zm6.521,0h-5.389v-9.593h5.389Zm6.528,0h-5.389v-9.593h5.389Zm6.528,0h-5.389v-9.593H142.2Zm6.521,0h-5.389v-9.593h5.389Zm6.521,0h-5.389v-9.593h5.389Zm6.528,0h-5.389v-9.593h5.389Z" transform="translate(-42.087 -162.296)" fill="#ec4b4b" opacity="0.1"/>
      <path id="Path_175" data-name="Path 175" d="M97,506.34c.256,1.037.559,2.061.869,3.079v-2.385h5.389v9.573h-2.89c.081.229.168.465.263.674H162.27V506.34Zm12.8,10.266H104.41v-9.573H109.8Zm6.514,0h-5.389v-9.573h5.389Zm6.528,0h-5.389v-9.573h5.389Zm6.521,0h-5.389v-9.573h5.389Zm6.528,0H130.5v-9.573h5.389Zm6.528,0h-5.389v-9.573h5.389Zm6.521,0h-5.389v-9.573h5.389Zm6.521,0H150.07v-9.573h5.389Zm6.528,0H156.6v-9.573h5.389Z" transform="translate(-42.241 -177.745)" fill="#ec4b4b" opacity="0.1"/>
      <path id="Path_176" data-name="Path 176" d="M119.54,553.7c.175.216.337.458.505.674h3.564v4.6l1.152,1.347v-5.975h5.389v9.66h-2.216c.216.222.424.458.674.674h40.978V553.7Zm17.151,10.307H131.3v-9.62h5.389Zm6.528,0H137.83v-9.62h5.389Zm6.528,0h-5.389v-9.62h5.389Zm6.521,0h-5.389v-9.62h5.389Zm6.521,0H157.4v-9.62h5.389Zm6.528,0h-5.389v-9.62h5.389Z" transform="translate(-49.596 -193.201)" fill="#ec4b4b" opacity="0.1"/>
      <path id="Path_177" data-name="Path 177" d="M172.93,601.06c.62.35,1.246.674,1.873,1.017v-.337h5.389v3.038c.391.168.761.35,1.145.525v-3.564h5.389v5.834a2.2,2.2,0,0,0,.317.115V601.06Z" transform="translate(-67.02 -208.657)" fill="#ec4b4b" opacity="0.1"/>
      <path id="Path_178" data-name="Path 178" d="M635.886,303.606Zm-41.5,198.828Zm-43.3-101.162c.128.431.242.862.357,1.287h0C551.349,402.134,551.228,401.7,551.093,401.272Zm84.793-97.666ZM229,202.733v2.87h30.092V202.72Zm365.4,299.7Zm-43.3-101.162c.128.431.242.862.357,1.287h0C551.349,402.134,551.228,401.7,551.093,401.272Zm84.793-97.666Zm-41.5,198.828Zm-43.3-101.162c.128.431.242.862.357,1.287h0C551.349,402.134,551.228,401.7,551.093,401.272Z" transform="translate(-85.318 -78.659)" fill="#ec4b4b" opacity="0.1"/>
      <ellipse id="Ellipse_27" data-name="Ellipse 27" cx="65.641" cy="10.543" rx="65.641" ry="10.543" transform="translate(526.949 560.19)" fill="#ec4b4b" opacity="0.1"/>
      <ellipse id="Ellipse_28" data-name="Ellipse 28" cx="65.641" cy="10.543" rx="65.641" ry="10.543" transform="translate(230.906 549.647)" fill="#ec4b4b" opacity="0.1"/>
      <path id="Path_179" data-name="Path 179" d="M511.4,384.131a.356.356,0,0,0-.1-.175c-1-.99-13.8-19.091-13.8-19.091s-.674-2.021-1.765-4.648a4.621,4.621,0,0,0,.775-1.516,5.211,5.211,0,0,0,.128-.707c0-.074.054-.135.074-.209a5.113,5.113,0,0,0-.067-2.775,4.808,4.808,0,0,1-.276.674,11.265,11.265,0,0,0-1.01-2.25c-1.7-2.924-4.123-5.389-5.908-8.239A22.291,22.291,0,0,1,486.4,330.4c0,.263,0,.532,0,.795a23.066,23.066,0,0,1,.4-3.031,21.032,21.032,0,0,1,1.125-3.328c1.6-3.671,4.2-6.871,5.773-10.556a20.007,20.007,0,0,0,1.2-3.86,21.623,21.623,0,0,0,.6-6.77,10.777,10.777,0,0,1-.168,1.61,21.927,21.927,0,0,0-6.191-14.6c-5.5-5.531-13.406-7.68-20.964-8.811a19.206,19.206,0,0,1-8.825-3.368,15.341,15.341,0,0,0-10.051-1.92,16.578,16.578,0,0,0-10.233,5.059c-3.591,3.948-5.147,9.539-9.337,12.867-2.54,2.021-5.76,2.964-8.717,4.338s-5.753,3.368-6.7,6.319v.108l-.04.108c-.984,3.49.916,7.04,1.906,10.522a42.632,42.632,0,0,1,1.152,11.135c.074,4.554.141,9.115.067,13.675-.034,1.792-.094,3.6-.229,5.389a28.232,28.232,0,0,0-4.628,1.859c-1.509.983-7.154,7.08-7.154,7.08L394.35,397.207l.148.168-.148.573.559-.128a56.838,56.838,0,0,0,11.27,9.472l.472,8.272s.566,8.3,8.2,11.728c.175,2.876.721,14.558-1.805,19.186a21.558,21.558,0,0,0-2.385,10.967s.883,7.02-.121,10.711a17.515,17.515,0,0,0-.128,7.518h0v2.216c0,7.471.088,31.412,0,34.121-.128,3.2,0,50.524,0,50.524s-.626,23.652-2.634,30.058-1.5,27.62-1.5,27.62-1.26,25.269,3.193,30.254c0,.222-.04.451-.047.674v.317c-.054,1.92.317,3.961,1.967,4.588a28.186,28.186,0,0,1,8.663,6.285c.842,1.112,5.74,3.88,12.126,3.139a91.3,91.3,0,0,1,12.052-.552h0s2.519-.458,1.7-3.591h0c-.525-1.954-2.493-4.958-3.894-6.932.256.067.505.121.741.168l.242.047h.189a2.573,2.573,0,0,0,.31,0h.135a2.317,2.317,0,0,0,.377,0h0c1.691-.162,8,2.775,9.121,4.716s5.093,3.415,8.084,3.786a57.429,57.429,0,0,0,10.031-.633,36.93,36.93,0,0,0,5.618-1.024c.889-.337,1.078-1.415.822-2.627h0a6.838,6.838,0,0,0-2.331-3.934,18.92,18.92,0,0,1-3.6-4.486l-.283-.451c1.879-1.792,5.275-7.653,6.305-8.865,1.253-1.475-2.021-55.428-2.021-55.428V558.614l5.019-25.6,3.51-13.547,3.011-20.452s5.268-23.888,3.644-26.232h0c0-.047-1.347-24.642-2.762-30.55-.613-2.634-.458-8.562-.094-14.329a2.829,2.829,0,0,0,.674-2.951,6.127,6.127,0,0,0-.391-1v-.31a46.386,46.386,0,0,1,9.074-3.085c5.019-.984,3.766-3.57,3.766-3.57s1.132-2.216,1.879-3.57.128-13.3,0-14.288c-.047-.4-.357-2.594-.714-5.086,1.61-1.145,3.705-2.567,5.989-3.914C512.731,387.553,511.754,384.838,511.4,384.131ZM445.918,554.922s-3.766,9.606-2.257,12.065-.249,11.587-.249,11.587l-1.26,13.547s-3.51,25.127-2.257,31.035c.984,4.635,1.347,18.478,1.462,24.251h0a1.709,1.709,0,0,0-.249.121l-.168.088c.579-2.27.337-6.865-2.54-16.107l-.243-38.176s-.445-44.1,3.038-49.028,4.716-13.3,4.716-13.3-.754,12.079-1.246,15.278S445.918,554.922,445.918,554.922Zm-7.013,94.891c-.034.081-.074.162-.1.236l-.189-.243A1.969,1.969,0,0,0,438.905,649.813Z" transform="translate(-139.28 -102.712)" fill="url(#linear-gradient)"/>
      <path id="Path_180" data-name="Path 180" d="M499.128,845.963c-1.947.748-12.5,2.021-15.454,1.664s-6.858-1.852-7.969-3.806-7.343-4.9-9.013-4.716a6.059,6.059,0,0,1-2.021-.283,24.875,24.875,0,0,1-3.368-1.293,6.25,6.25,0,0,1,.074-2.56,4.1,4.1,0,0,1,.148-.5,4.453,4.453,0,0,1,2.263-2.52l.243-.114a6.855,6.855,0,0,1,1.455-.445c5.295-1.017,27.141,1.024,27.141,1.024s.613,1.1,1.455,2.459a18.8,18.8,0,0,0,3.557,4.514,6.9,6.9,0,0,1,2.3,3.961C500.193,844.542,500,845.633,499.128,845.963Z" transform="translate(-161.098 -283.732)" fill="#fff"/>
      <path id="Path_181" data-name="Path 181" d="M499.132,846.878c-1.947.748-12.5,2.021-15.447,1.664s-6.858-1.859-7.976-3.806-7.336-4.9-9.007-4.716-5.389-1.576-5.389-1.576a5.584,5.584,0,0,1,1.1-4.534l3.368,2.391s9.014,2.8,10.684,5.389,4.716,4.042,9.115,4.3c3.287.216,10.839-1.064,14.376-1.7C500.2,845.456,500.015,846.548,499.132,846.878Z" transform="translate(-161.102 -284.647)" opacity="0.1"/>
      <path id="Path_182" data-name="Path 182" d="M452.966,849.517a89.671,89.671,0,0,0-11.9.559c-6.326.741-11.156-2.021-12-3.159a28.108,28.108,0,0,0-8.549-6.332c-1.637-.633-2.021-2.695-1.947-4.621v-.317a18.86,18.86,0,0,1,.539-3.617l26.212-.559,2.27,3.079.35.472,1.381,1.879s.627.822,1.448,2.021c1.388,2.021,3.328,5.005,3.846,6.979h0C455.452,849.059,452.966,849.517,452.966,849.517Z" transform="translate(-147.183 -283.85)" fill="#fff"/>
      <path id="Path_183" data-name="Path 183" d="M452.966,851.7a89.682,89.682,0,0,0-11.9.559c-6.319.741-11.156-2.021-11.991-3.159a27.32,27.32,0,0,0-8.555-6.319c-1.637-.633-2.021-2.695-1.947-4.621,1.873.438,5.807,1.556,7.35,3.5,2.021,2.6,5.638,6.972,10.778,7.248,4.15.222,14.254-.519,17.96-.815C455.458,851.242,452.966,851.7,452.966,851.7Z" transform="translate(-147.183 -286.034)" opacity="0.1"/>
      <path id="Path_184" data-name="Path 184" d="M449.835,832.036c-.3,2.25-1.24,2.856-1.913,2.991a1.3,1.3,0,0,1-.5,0,1.64,1.64,0,0,1-.263-.04s-23.537,5.2-28.293.99a3.3,3.3,0,0,1-.337-.35,18.868,18.868,0,0,1,.539-3.617l26.212-.559,2.27,3.079a4.453,4.453,0,0,1,2.263-2.519Z" transform="translate(-147.171 -283.844)" opacity="0.1"/>
      <path id="Path_185" data-name="Path 185" d="M495.432,834.819c-.525.579-.963.909-1.24.795-1.24-.5-11.4-2.23-14.625-.741s-14.147.242-14.147.242,0-1.293-.061-3.368a6.856,6.856,0,0,1,1.455-.445c5.295-1.017,27.141,1.024,27.141,1.024S494.6,833.458,495.432,834.819Z" transform="translate(-162.454 -283.703)" opacity="0.1"/>
      <path id="Path_186" data-name="Path 186" d="M493.956,593.64l-2.978,20.573-3.463,13.635-4.958,25.774V680.9s3.22,54.283,1.981,55.765-5.948,9.923-7.188,9.431-11.4-2.23-14.625-.748-14.147.249-14.147.249-.249-21.065-1.489-27.013,2.23-31.23,2.23-31.23l1.24-13.628s1.738-9.175.249-11.654,2.23-12.126,2.23-12.126-1.731-5.463-1.233-8.683,1.233-15.366,1.233-15.366-1.233,8.434-4.675,13.385-3,49.325-3,49.325l.242,38.4c6.2,20.331,0,18.344,0,18.344s-23.537,5.207-28.293.99-3.4-30.759-3.4-30.759-.492-21.314,1.489-27.755,2.607-30.24,2.607-30.24-.128-47.593,0-50.807c.094-2.695,0-26.818,0-34.356V570.2l2.843-7.06,33.683-4.217h16.114s24.251,5.7,26.757,8.158a.559.559,0,0,1,.135.148C499.163,569.6,493.956,593.64,493.956,593.64Z" transform="translate(-145.606 -194.904)" fill="#ec4b4b"/>
      <path id="Path_187" data-name="Path 187" d="M472.11,770.88s7.41,17.845,10.906,19.084S472.11,770.88,472.11,770.88Z" transform="translate(-164.657 -264.077)" opacity="0.1"/>
      <path id="Path_188" data-name="Path 188" d="M476.18,809.88s25.019,1.24,24.77,3.968S476.18,809.88,476.18,809.88Z" transform="translate(-165.985 -276.805)" opacity="0.1"/>
      <path id="Path_189" data-name="Path 189" d="M426.49,799.29c.99.936,19.085,2.695,17.6,4.406s-16.107,5.039-16.107,5.039Z" transform="translate(-149.769 -273.349)" opacity="0.1"/>
      <path id="Path_190" data-name="Path 190" d="M422.08,753.59c0,.741,3.719,23.793,4.716,24.784s9.168,1.98,9.168,1.98Z" transform="translate(-148.33 -258.434)" opacity="0.1"/>
      <path id="Path_191" data-name="Path 191" d="M449.559,283.307c-3.55,3.968-5.086,9.593-9.222,12.948-2.513,2.021-5.692,2.984-8.616,4.359s-5.82,3.469-6.689,6.582c-.97,3.5.9,7.08,1.886,10.583a43.815,43.815,0,0,1,1.138,11.2c.067,4.588.141,9.175.061,13.763-.121,7.147-.714,14.625-4.507,20.681,13.7,4.359,28.26,4.951,42.622,5.51a43,43,0,0,0,8.279-.209,71.08,71.08,0,0,0,7.053-1.785,54.079,54.079,0,0,1,14.052-1.8,23.6,23.6,0,0,0,6.171-.411,6.089,6.089,0,0,0,4.453-3.914,7.271,7.271,0,0,0-1.138-5.308c-1.671-2.937-4.042-5.389-5.834-8.286a22.77,22.77,0,0,1-1.462-20.472c1.59-3.7,4.15-6.918,5.713-10.623a22.405,22.405,0,0,0-4.513-23.766c-5.436-5.564-13.237-7.72-20.7-8.865a18.8,18.8,0,0,1-8.717-3.368,14.921,14.921,0,0,0-9.93-1.927,16.208,16.208,0,0,0-10.1,5.106Z" transform="translate(-148.829 -103.246)" fill="#3f3d56"/>
      <g id="Group_20" data-name="Group 20" transform="translate(275.05 202.198)" opacity="0.1">
        <path id="Path_192" data-name="Path 192" d="M533.2,336.131a22.413,22.413,0,0,0-1.718,10.287,22.027,22.027,0,0,1,1.718-7.3c1.583-3.7,4.143-6.918,5.706-10.624a21.494,21.494,0,0,0,1.57-9.781,20.95,20.95,0,0,1-1.57,6.8C537.345,329.219,534.785,332.432,533.2,336.131Z" transform="translate(-459.066 -318.71)"/>
        <path id="Path_193" data-name="Path 193" d="M428.919,342.046c.04,2.641.081,5.288.088,7.929q0-5.457-.088-10.9a43.717,43.717,0,0,0-1.138-11.21,55.511,55.511,0,0,1-2.021-6.966c-.6,3.3,1.1,6.649,2.021,9.943A43.516,43.516,0,0,1,428.919,342.046Z" transform="translate(-424.54 -319.425)"/>
        <path id="Path_194" data-name="Path 194" d="M502.147,399.179a22.78,22.78,0,0,1-6.164.411,54.041,54.041,0,0,0-14.046,1.765,71.544,71.544,0,0,1-7.053,1.778,42.561,42.561,0,0,1-8.286.216c-13.877-.546-27.95-1.132-41.241-5.1a22.866,22.866,0,0,1-1.347,2.56c13.7,4.352,28.26,4.951,42.615,5.51a42.557,42.557,0,0,0,8.286-.216,69.661,69.661,0,0,0,7.026-1.772,54.042,54.042,0,0,1,14.019-1.785,23.257,23.257,0,0,0,6.164-.418,6.093,6.093,0,0,0,4.453-3.907,5.347,5.347,0,0,0-.067-2.8A6.289,6.289,0,0,1,502.147,399.179Z" transform="translate(-424.01 -343.744)"/>
      </g>
      <path id="Path_195" data-name="Path 195" d="M488.044,369.948c-.5,1.118-2.6,10.778-3.1,11.769s-3.22,16.841-3.469,17.731-17.939-3.719-17.939-3.719l-10.65-8.926L441.939,375.91s-.323-9.829,7.74-12.981a12.3,12.3,0,0,1,1.684-.525c9.781-2.351,8.8-32.093,8.8-32.093l20.075,8.67s-3.719,17.353-3.591,20.7c.034,1.125.916,1.826,2.068,2.25a16.35,16.35,0,0,0,5.484.593S488.542,368.836,488.044,369.948Z" transform="translate(-154.81 -120.298)" fill="#fbbebe"/>
      <path id="Path_196" data-name="Path 196" d="M550.882,436.812l2.849.748s2.109,3.207-2.849,6.191a85.88,85.88,0,0,0-9.047,6.326l-14.652,4.46-2.823-8.859,13.635-10.347Z" transform="translate(-181.709 -154.571)" fill="#ec4b4b"/>
      <path id="Path_197" data-name="Path 197" d="M550.882,436.812l2.849.748s2.109,3.207-2.849,6.191a85.88,85.88,0,0,0-9.047,6.326l-14.652,4.46-2.823-8.859,13.635-10.347Z" transform="translate(-181.709 -154.571)" opacity="0.1"/>
      <path id="Path_198" data-name="Path 198" d="M402.239,449.45l-5.7,5.578s10.28,11.9,18.189,12.638,13.008-9.047,13.008-9.047l-6.844-10.778Z" transform="translate(-139.995 -158.654)" fill="#ec4b4b"/>
      <path id="Path_199" data-name="Path 199" d="M402.239,449.45l-5.7,5.578s10.28,11.9,18.189,12.638,13.008-9.047,13.008-9.047l-6.844-10.778Z" transform="translate(-139.995 -158.654)" opacity="0.1"/>
      <circle id="Ellipse_29" data-name="Ellipse 29" cx="19.826" cy="19.826" r="19.826" transform="translate(296.553 189.796)" opacity="0.1"/>
      <circle id="Ellipse_30" data-name="Ellipse 30" cx="19.826" cy="19.826" r="19.826" transform="translate(296.553 188.307)" fill="#fbbebe"/>
      <path id="Path_200" data-name="Path 200" d="M499.622,569.486a63.993,63.993,0,0,0-13.264,2.971c-7.41,2.466-65.479.04-66.287,0v-2.23l2.843-7.06L456.6,558.95h16.114s24.251,5.7,26.757,8.158C499.568,568.59,499.622,569.486,499.622,569.486Z" transform="translate(-147.674 -194.914)" opacity="0.1"/>
      <path id="Path_201" data-name="Path 201" d="M488.044,385.266c-.5,1.118-2.6,10.778-3.1,11.769s-3.22,16.841-3.469,17.73-17.939-3.719-17.939-3.719l-10.65-8.926-10.947-10.893s-.323-9.829,7.74-12.981L469.7,401.266l9.013-24.016a16.351,16.351,0,0,0,5.484.593S488.542,384.155,488.044,385.266Z" transform="translate(-154.81 -135.617)" opacity="0.1"/>
      <path id="Path_202" data-name="Path 202" d="M460.156,401.507,439.663,377.93a8.589,8.589,0,0,0-8.131-.6c-4.588,1.987-10.287,3.6-11.776,4.588s-7.067,7.121-7.067,7.121L429.3,432.5l-7.316,28.623s1.118,14.625-1.731,19.954A21.9,21.9,0,0,0,417.9,492.1s.869,7.067-.121,10.779a17.954,17.954,0,0,0-.128,7.558s58.87,2.479,66.3,0a63.444,63.444,0,0,1,13.264-2.971s-1.347-24.79-2.695-30.739,1.118-28.623,1.118-28.623l-1.61-24.292,9.66-24.925S498.453,382.908,493,381.3c0,0-9.909-2.358-12.018-3.469s-8.306-2.109-8.306-2.109l-3.254,1.091Z" transform="translate(-145.265 -135.117)" fill="#ec4b4b"/>
      <rect id="Rectangle_77" data-name="Rectangle 77" width="47.183" height="72.202" rx="2.94" transform="translate(298.385 284.809) rotate(3.89)" opacity="0.1"/>
      <rect id="Rectangle_78" data-name="Rectangle 78" width="47.183" height="72.202" rx="2.94" transform="translate(299.87 283.33) rotate(3.89)" fill="#3f3d56"/>
      <rect id="Rectangle_79" data-name="Rectangle 79" width="41.106" height="62.124" transform="translate(302.533 288.945) rotate(3.89)" fill="#fff"/>
      <rect id="Rectangle_80" data-name="Rectangle 80" width="33.583" height="9.36" transform="translate(306.365 305.208) rotate(4.004)" opacity="0.1"/>
      <rect id="Rectangle_81" data-name="Rectangle 81" width="5.329" height="4.877" transform="translate(333.339 344.297) rotate(3.89)" opacity="0.1"/>
      <rect id="Rectangle_82" data-name="Rectangle 82" width="27.276" height="4.877" transform="translate(306.198 331.064) rotate(3.89)" opacity="0.1"/>
      <rect id="Rectangle_83" data-name="Rectangle 83" width="28.401" height="7.498" transform="translate(310.133 287.489) rotate(3.89)" fill="#3f3d56"/>
      <rect id="Rectangle_84" data-name="Rectangle 84" width="28.401" height="7.498" transform="translate(310.133 287.489) rotate(3.89)" opacity="0.1"/>
      <path id="Path_203" data-name="Path 203" d="M482.026,572.56s-.249,36.687-9.916,57.752c0,0,11.654-27.761,11.654-28.873s6.44-12.766,4.716-16.235S482.026,572.56,482.026,572.56Z" transform="translate(-164.657 -199.356)" opacity="0.1"/>
      <path id="Path_204" data-name="Path 204" d="M476.06,310.059a13.789,13.789,0,0,1,2.243-9.236,11.378,11.378,0,0,0,8.8,11.991,1.489,1.489,0,0,1-.424-1.63c1.381,1.563,2.439,3.415,4,4.79s3.907,2.2,5.746,1.219c2.5-1.347,2.526-4.9,1.879-7.659a35.973,35.973,0,0,0-8.279-15.811,10.953,10.953,0,0,0-8.69-4.419,21.378,21.378,0,0,0-11.23,1.758,29.847,29.847,0,0,0-5.389,3.766l-9.431,7.693a8.952,8.952,0,0,0-2.29,2.412,6.6,6.6,0,0,0-.714,2.526,13.614,13.614,0,0,0,6.346,12.847,10.044,10.044,0,0,1,6.016-9.431,2.614,2.614,0,0,1,.936,1.947l1.987-3.543a3.9,3.9,0,0,1,1.347-1.6c1.226-.674,2.755.121,3.8,1.071s2.061,2.135,3.463,2.284l.054-5.275" transform="translate(-158.165 -106.884)" opacity="0.1"/>
      <path id="Path_205" data-name="Path 205" d="M476.073,308.958a13.8,13.8,0,0,1,2.243-9.243,11.385,11.385,0,0,0,8.8,11.991,1.475,1.475,0,0,1-.424-1.624c1.381,1.563,2.439,3.409,4,4.79s3.907,2.2,5.746,1.213c2.5-1.347,2.526-4.9,1.879-7.653a35.973,35.973,0,0,0-8.279-15.811,13.25,13.25,0,0,0-4.628-3.6,13.472,13.472,0,0,0-4.042-.822,21.374,21.374,0,0,0-11.23,1.751,30.219,30.219,0,0,0-5.389,3.772l-9.431,7.693a8.858,8.858,0,0,0-2.29,2.412,6.567,6.567,0,0,0-.714,2.526,13.608,13.608,0,0,0,6.346,12.84,10.058,10.058,0,0,1,6.016-9.431,2.634,2.634,0,0,1,.936,1.947l1.981-3.53a3.86,3.86,0,0,1,1.347-1.6c1.226-.674,2.755.121,3.8,1.071s2.061,2.129,3.463,2.284l.054-5.281" transform="translate(-158.178 -106.525)" fill="#3f3d56"/>
      <path id="Path_206" data-name="Path 206" d="M472.557,486.127c-1.731-.876-30.361,3.591-30.361,3.591a163.851,163.851,0,0,0-16.114-3.22c-11.4-1.873-12.126-13.015-12.126-13.015l-1.246-22.3,3.847-3.368,16.478,10.778a53.23,53.23,0,0,1,0,6.433,9.071,9.071,0,0,0-.552,2.021.674.674,0,0,0,.552.606c1.118.283,16.356,2.748,16.356,2.748s35.32-2.418,44.124,9.478a8.945,8.945,0,0,1,1.556,2.937C497.253,490.944,474.127,486.9,472.557,486.127Z" transform="translate(-145.272 -158.644)" fill="#fbbebe"/>
      <path id="Path_207" data-name="Path 207" d="M504.416,492.2c-1.347.6-2.183,1.031-2.183,1.031s-12.638-.37-19.738-2.944-15.73-2.115-15.73-2.115-29.587-5.093-25-11.742a.674.674,0,0,0,.552.606c1.118.283,16.356,2.749,16.356,2.749s35.32-2.418,44.124,9.478A8.946,8.946,0,0,1,504.416,492.2Z" transform="translate(-154.597 -167.984)" opacity="0.1"/>
      <path id="Path_208" data-name="Path 208" d="M516.714,441.58s1.738,12.267,1.859,13.264.748,13.008,0,14.376-1.859,3.591-1.859,3.591,1.24,2.6-3.719,3.6a50.887,50.887,0,0,0-10.778,3.961s-12.644-.371-19.7-2.971-15.737-2.109-15.737-2.109-37.556-6.447-21.442-14.315,27.512,2.789,27.512,2.789l17.966-1.112s6.7-4.1,8.555-3.719a6.878,6.878,0,0,0,3.84-.62l.128-13.015Z" transform="translate(-154.607 -156.611)" fill="#fbbebe"/>
      <path id="Path_209" data-name="Path 209" d="M410.977,396.789l-3.6-.189-10.9,42.44s11.769-2.978,16.841,0,14.376,3.591,14.376,3.591L424.228,408.8Z" transform="translate(-139.975 -141.932)" opacity="0.1"/>
      <path id="Path_210" data-name="Path 210" d="M410.977,395.679l-3.6-.189-10.9,42.44s11.769-2.978,16.841,0,14.376,3.591,14.376,3.591l-3.469-33.831Z" transform="translate(-139.975 -141.569)" fill="#ec4b4b"/>
      <path id="Path_211" data-name="Path 211" d="M536.52,409.57l4.951,1.118s12.644,18.189,13.635,19.206-4.716,4.716-7.067,4.716-13.877,1.347-17.225,4.46-1.954-12.55-1.954-12.907,4.156-10.24,4.156-10.24Z" transform="translate(-183.083 -146.164)" opacity="0.1"/>
      <path id="Path_212" data-name="Path 212" d="M536.52,408.47l4.951,1.112s12.644,18.222,13.635,19.213-4.716,4.716-7.067,4.716-13.877,1.347-17.225,4.46-1.954-12.55-1.954-12.907,4.183-10.273,4.183-10.273Z" transform="translate(-183.083 -145.805)" fill="#ec4b4b"/>
      <g id="Group_21" data-name="Group 21" transform="translate(294.079 191.702)" opacity="0.1">
        <path id="Path_213" data-name="Path 213" d="M478.282,304.679a9.942,9.942,0,0,1,.034-1.549,13.791,13.791,0,0,0-2.075,5.086v1.88c0,1.091,0,2.189-.034,3.281h-.094v.505a2.68,2.68,0,0,0-.034-.519c-1.347-.216-2.311-1.347-3.314-2.25s-2.573-1.765-3.8-1.071a3.86,3.86,0,0,0-1.347,1.6l-2,3.53a2.607,2.607,0,0,0-.936-1.94,10.044,10.044,0,0,0-6.016,9.431,13.689,13.689,0,0,1-6.393-10.731,13.621,13.621,0,0,0,6.393,12.213,10.058,10.058,0,0,1,6.016-9.431,2.634,2.634,0,0,1,.936,1.947l1.981-3.53a3.86,3.86,0,0,1,1.347-1.6c1.226-.674,2.755.121,3.8,1.071s2.061,2.129,3.463,2.284q0-2.587.054-5.16A13.721,13.721,0,0,1,478.282,304.679Z" transform="translate(-452.256 -303.13)"/>
        <path id="Path_214" data-name="Path 214" d="M487.5,313.947c.034-.458.088-.916.155-1.347l.074-1.859a13.631,13.631,0,0,0-.229,3.207Z" transform="translate(-463.754 -305.614)"/>
        <path id="Path_215" data-name="Path 215" d="M513.085,324.522c-1.839.983-4.183.162-5.746-1.213s-2.621-3.227-4-4.79a1.489,1.489,0,0,0,.424,1.63,1.588,1.588,0,0,1-.391-.1c1.347,1.549,2.418,3.368,3.968,4.716s3.907,2.2,5.746,1.213,2.365-3.287,2.2-5.531A4.676,4.676,0,0,1,513.085,324.522Z" transform="translate(-468.897 -308.153)"/>
        <path id="Path_216" data-name="Path 216" d="M499.291,315.921a11.452,11.452,0,0,1-8.394-10.01,11.378,11.378,0,0,0,8.825,11.607A1.482,1.482,0,0,1,499.291,315.921Z" transform="translate(-464.858 -304.037)"/>
      </g>
      <path id="Path_217" data-name="Path 217" d="M914.062,412.4s-2.654-.371-2.654-4.231-1.9-11.088-1.9-11.088h0s-1.644-12.577-3.914-14.571-5.187-13.7-5.187-13.7-.5-6.353-1.516-7.72-2.392-4.716-4.419-9.492-10.462-8.05-10.462-8.05-15.285-8.865-19.617-11.755h0a6.691,6.691,0,0,1-1.1-.835c-.755-.984-4.042-1-4.042-1a66.6,66.6,0,0,1-.781-6.925v-.728a23.309,23.309,0,0,0,10.246-12.678c.081-.256.148-.519.222-.781a2.189,2.189,0,0,0,1.347-1.186,23.786,23.786,0,0,1,.882-2.695,9.987,9.987,0,0,1,2.492-2.183c2.142-1.826,2.695-4.891,2.594-7.673-.067-2.263-.431-4.54-.29-6.784a2.666,2.666,0,0,1,.04-.566c.04-.33.088-.674.148-1,.33-1.671,1.051-3.247,1.455-4.9a6.309,6.309,0,0,0-.5-4.951c-1.381-2.1-4.258-2.513-6.784-2.695-2.863-.242-5.389.067-7.255-2.311a25.4,25.4,0,0,0-2.883-3.476c-.377-.35-4.042-2.594-4.042-2.735a16.377,16.377,0,0,0-11.452-.883c-1.907.552-3.692,1.455-5.625,1.906-4.15.984-8.933-.081-12.463,2.3-1.967,1.347-3.146,3.5-4.251,5.578q-1.347,2.573-2.735,5.153a33.161,33.161,0,0,0-3.631,8.818,14.929,14.929,0,0,0-.249,2.068h0v1.071a3.7,3.7,0,0,0,.04.674,3.865,3.865,0,0,0,.047.418c.047.141.061.458.1.674s.121.6.2.889a1.365,1.365,0,0,0,.121.377c.04.128.148.451.236.674s.094.236.148.35a6.285,6.285,0,0,0,.344.674c.054.088.094.175.148.263a7.65,7.65,0,0,0,.62.9c1.435,1.8,3.564,2.944,5.133,4.628v.755a23.059,23.059,0,0,0,10.563,18.795c0,.256.034.519.047.781a38.456,38.456,0,0,1-.074,6,2.843,2.843,0,0,0-2.237-1,3.2,3.2,0,0,0-.862.074l-.061-.047h0v.061c-1.482.364-3.307,1.906-5.052,6.292,0,0-5.308,5.982-9.35,5.733s-14.275,6.231-14.275,6.231-9.983,6.474-12.126,13.076a91.417,91.417,0,0,1-4.3,10.967l-12.375,25.41h0l-2.27,20.21s1.26,8.966,1.01,10.341,5.18,13.7,5.18,13.7,17.939,31.513,25.269,33.13l.525-.364a4.583,4.583,0,0,0,.99.364l1.509-1.058a15.771,15.771,0,0,1-.121,3.55c-1,3.119.384,23.423,2.149,27.4s1.139,56.189,1.139,56.189l-.249,4.6a1.954,1.954,0,0,0,.061.4L807.9,564.9l.182.094a13.023,13.023,0,0,1-.182,4.392c-.633,2.021-.889,7.727-.889,7.727s-5.052,32.255-2.654,38.735,4.426,13.581,4.426,13.581,2.526,8.084.121,9.431-9.216,3.739-7.828,7.1c1.28,3.112,6.137,11.452,6.858,12.671l-.061.674-.99,10.731a13.474,13.474,0,0,0,1.139,4.1,7.043,7.043,0,0,0,7.2,4.5c.674-.047,1.448-.121,2.21-.222a95.733,95.733,0,0,0,16.363-4.264,6.448,6.448,0,0,1-1.273-1.058h0A3.7,3.7,0,0,1,831.4,670.4c.108-1.96-3.55-11.263-4.466-13.561l-.209-.512s8.34-8.724,6.952-16.444c0,0-9.229-5.389-6.191-8.353s8.468-11.452,8.468-11.452.249-31.763,0-36.5a39.341,39.341,0,0,1,.465-9.862c.1-.485.222-.963.35-1.442a86.05,86.05,0,0,0,12.705.963q2.331,0,4.716-.094,0,.674.061,1.455c.35,7.868,1,21.671,1.536,26.8.755,7.343,4.924,27.155,4.924,27.155s-7.956,5.1,1.388,17.69c0,0,0,4.554-.62,5.221h0a57.011,57.011,0,0,0-1.6,6.582c-.391,2.365-.552,4.769.081,6.009,1.516,2.977,10.61,2.735,10.61,2.735h0a1.434,1.434,0,0,1,.222-.034,12.981,12.981,0,0,1,9.626,2.9c3.456,2.775,16.565,1.563,23.672.674,2.782-.357,4.641-.674,4.641-.674a2.726,2.726,0,0,0,.094-.97h0c-.074-1.745-1.442-5.571-10.711-8.986,0,0-8.717-5.861-8.6-10.967h-1.2c.633-.02,1.078-.02,1.078-.02s-3.415-12.456-2.021-13.473-2.782-14.82-2.782-14.82-2.391-23.174-2.526-24.79a14.25,14.25,0,0,1,.633-4.109L882.07,578.8s-.121-4.224,0-5.6a26.3,26.3,0,0,0-.283-3.564c-.061-.471-.121-.963-.189-1.448,3.267-.829,5.389-1.59,5.389-1.59l-.377-44.225c2.775-5.389,3.287-17.219,3.274-25.6,0-5.389-.242-9.377-.242-9.377l3.793-6.191s.876-7.41-.512-9.034a1.555,1.555,0,0,1,.168-2.122,7.065,7.065,0,0,1,.842-.593,1.062,1.062,0,0,1-.087-.148,6.69,6.69,0,0,1,.842-.6s-1.347-2.088-.141-2.971c1.132.768,2.142,1.381,2.91,1.819-.054.492-.108.775-.108.775l.323-.674,1.192.674s5.942-11.836,5.814-13.574,4.042-9.094,4.042-9.094.505-3.867,2.782-5.484,1.765-13.332,1.765-13.332.633-6.1,2.149-8.589S914.062,412.4,914.062,412.4ZM800.377,407.2l.115,2.823c-.674-1.085-1.159-1.859-1.159-1.859Z" transform="translate(-262.036 -98.708)" fill="url(#linear-gradient-2)"/>
      <path id="Path_218" data-name="Path 218" d="M953.977,551.061l-1.455,6.2s-11.654-5.962-13.749-13.507,3.51-10.421,3.51-10.421l10.866,4.594Z" transform="translate(-316.798 -186.553)" fill="#fff"/>
      <path id="Path_219" data-name="Path 219" d="M953.977,551.061l-1.455,6.2s-11.654-5.962-13.749-13.507,3.51-10.421,3.51-10.421l10.866,4.594Z" transform="translate(-316.798 -186.553)" opacity="0.1"/>
      <path id="Path_220" data-name="Path 220" d="M851.7,860.888s-10.779,3.961-18.189,4.46c-3.934.263-6-2.149-7.067-4.473a13.672,13.672,0,0,1-1.118-4.042l.977-10.677.512-5.679,15.743-4.1,2.23,6.824.209.512c.889,2.284,4.487,11.54,4.379,13.473a3.7,3.7,0,0,0,1.1,2.694A6.257,6.257,0,0,0,851.7,860.888Z" transform="translate(-279.93 -285.453)" fill="#fff"/>
      <path id="Path_221" data-name="Path 221" d="M950.293,855.1a2.7,2.7,0,0,1-.094.97s-23.052,3.84-27.768,0a12.483,12.483,0,0,0-9.674-2.85s-8.919.242-10.408-2.695c-.62-1.233-.458-3.624-.074-5.975A57.3,57.3,0,0,1,903.838,838l.357-.283,2.122-1.7,24.844-.734h.189c-.121,5.079,8.427,10.906,8.427,10.906C948.879,849.555,950.219,853.361,950.293,855.1Z" transform="translate(-304.93 -285.094)" fill="#fff"/>
      <path id="Path_222" data-name="Path 222" d="M950.3,859.586a2.776,2.776,0,0,1-.1.97s-23.052,3.84-27.761,0a12.483,12.483,0,0,0-9.68-2.85s-8.926.242-10.415-2.695c-.613-1.233-.458-3.624-.074-5.982,3.436.343,8.859,1.2,10.987,3.247,3.22,3.1,8.677,6.2,12.018,6.447C927.913,858.886,943.615,859.384,950.3,859.586Z" transform="translate(-304.928 -289.581)" opacity="0.1"/>
      <path id="Path_223" data-name="Path 223" d="M852.245,872.261s-10.778,3.961-18.189,4.46c-3.934.263-6-2.149-7.067-4.473,2.749.923,6.555,1.886,8.555,1,2.371-1.058,10.778-1.731,15.494-2.021A6.125,6.125,0,0,0,852.245,872.261Z" transform="translate(-280.471 -296.826)" opacity="0.1"/>
      <path id="Path_224" data-name="Path 224" d="M879.538,379.286c-8.892-3.456-20.331-14.874-17.474-20.21a12.079,12.079,0,0,0,1.112-4.284,39.126,39.126,0,0,0,.081-6.063,83.269,83.269,0,0,0-1.192-9.869s27.761.626,26.144,4.716a15.171,15.171,0,0,0-.418,5.612c.135,2.324.465,4.972.815,7.2.478,3.052.97,5.389.97,5.389s-1.7,2.378-2.694,2.506S892.3,384.237,879.538,379.286Z" transform="translate(-291.772 -123.088)" fill="#cf6f80"/>
      <path id="Path_225" data-name="Path 225" d="M845.434,843.666l-.209.229c-8.3-10.037-18.337,2.479-18.337,2.479l-.148-.269.512-5.679L843,836.33l2.23,6.824Z" transform="translate(-280.39 -285.437)" opacity="0.1"/>
      <path id="Path_226" data-name="Path 226" d="M932.295,835.974s-6.063-.121-9.3,2.735-18.862.613-18.189,0a2.331,2.331,0,0,0,.35-1.031l2.122-1.7,24.844-.734C932.221,835.712,932.295,835.974,932.295,835.974Z" transform="translate(-305.861 -285.081)" opacity="0.1"/>
      <path id="Path_227" data-name="Path 227" d="M852.436,712.875a18.891,18.891,0,0,0-1.024,3.456,39.541,39.541,0,0,0-.465,9.808c.249,4.716,0,36.317,0,36.317s-5.329,8.427-8.306,11.4,6.063,8.306,6.063,8.306c1.347,7.686-6.817,16.363-6.817,16.363C833.587,788.485,823.55,801,823.55,801s-5.457-9.431-6.817-12.8,5.329-5.692,7.68-7.067-.121-9.431-.121-9.431-1.981-7.067-4.338-13.513,2.6-38.533,2.6-38.533a49.8,49.8,0,0,1,.869-7.693,13.035,13.035,0,0,0,.182-4.365c-.04-.492-.088-.9-.121-1.179s-.061-.4-.061-.4l.094-.162,3.368-6.278S854.053,708.92,852.436,712.875Z" transform="translate(-277.065 -240.805)" fill="#ec4b4b"/>
      <path id="Path_228" data-name="Path 228" d="M928.767,794.166s-6.063-.128-9.3,2.695-18.862.62-18.189,0,.613-5.2.613-5.2c-9.168-12.523-1.347-17.6-1.347-17.6s-4.089-19.7-4.83-27.013c-.519-5.1-1.159-18.862-1.5-26.656-.148-3.368-.236-5.692-.236-5.692l7.424-1.475.963-.189,18.067-3.631s.5,3.368.835,6.123a26.914,26.914,0,0,1,.276,3.55c-.115,1.347,0,5.571,0,5.571l.62,12.638a14.573,14.573,0,0,0-.62,4.089c.128,1.617,2.479,24.663,2.479,24.663s4.089,13.756,2.695,14.746S928.767,794.166,928.767,794.166Z" transform="translate(-302.333 -244.013)" fill="#ec4b4b"/>
      <path id="Path_229" data-name="Path 229" d="M888.425,343.606a15.17,15.17,0,0,0-.418,5.611,23.072,23.072,0,0,1-24.534-.458,83.271,83.271,0,0,0-1.192-9.869S890.041,339.517,888.425,343.606Z" transform="translate(-291.988 -123.098)" opacity="0.1"/>
      <path id="Path_230" data-name="Path 230" d="M894.671,312.642a23.047,23.047,0,1,1-46.091.552v-.552a23.052,23.052,0,1,1,46.1,0Z" transform="translate(-287.517 -107.009)" fill="#cf6f80"/>
      <path id="Path_231" data-name="Path 231" d="M879.538,387c-8.892-3.456-20.331-14.874-17.474-20.21a12.08,12.08,0,0,0,1.112-4.284l12.173,10.01,7.531,6.177,5.726-14.571c.478,3.052.97,5.389.97,5.389s-1.7,2.378-2.694,2.506S892.3,391.955,879.538,387Z" transform="translate(-291.772 -130.806)" opacity="0.1"/>
      <path id="Path_232" data-name="Path 232" d="M891.019,412.177,880.854,582.948l-13.257.869L833.26,484.8l5.632-117.559,1.192-24.838,15.265,12.537,7.531,6.177,5.894-15,10.96,9.552Z" transform="translate(-271.773 -111.741)" fill="#ec4b4b"/>
      <path id="Path_233" data-name="Path 233" d="M855.758,712.9a18.887,18.887,0,0,0-1.024,3.456,97.678,97.678,0,0,1-27.822-8.683l-.182-.094.061-1.085v-.566l3.368-6.278S857.374,708.946,855.758,712.9Z" transform="translate(-280.386 -240.831)" opacity="0.1"/>
      <path id="Path_234" data-name="Path 234" d="M901.606,721.416a68.229,68.229,0,0,1-7.45.856c-.148-3.368-.236-5.692-.236-5.692l7.464-1.509Z" transform="translate(-302.314 -245.864)" opacity="0.1"/>
      <path id="Path_235" data-name="Path 235" d="M925.373,715.523c-4.79,1.246-12.193,2.648-18.808,1.772l-.094-4.264,18.067-3.631S925.016,712.741,925.373,715.523Z" transform="translate(-306.409 -244.013)" opacity="0.1"/>
      <path id="Path_236" data-name="Path 236" d="M864.106,604.34c-27.62,4.716-52.915-8.8-52.915-8.8l.242-4.581s.627-51.932-1.112-55.913-3.092-24.144-2.108-27.222-3.591-49.561-3.591-49.561l-.741-18.862L776.74,428.369l12.126-25.282a91.341,91.341,0,0,0,4.217-10.913c2.109-6.568,11.9-13.015,11.9-13.015s10.037-6.44,14.005-6.2,9.168-5.7,9.168-5.7c3.84-9.788,7.316-5.389,7.316-5.389a8.661,8.661,0,0,1-.189,1.448c-1.347,10.745,21.786,44.7,22.116,45.3h0l2.23,53.663,2.23,67.911Z" transform="translate(-264.072 -130.277)" opacity="0.1"/>
      <path id="Path_237" data-name="Path 237" d="M863,604.34c-27.62,4.716-52.922-8.8-52.922-8.8l.249-4.581s.62-51.932-1.118-55.913-3.092-24.164-2.1-27.269-3.611-49.54-3.611-49.54l-.748-18.862L775.61,428.342l12.126-25.282a92.8,92.8,0,0,0,4.217-10.906c2.109-6.548,11.93-13,11.93-13s10.037-6.44,14-6.2,9.189-5.692,9.189-5.692c3.847-9.788,8.084-5.389,8.084-5.389,0,.472-.4.674-.189,1.448,2.964,10.421,21.045,44.7,21.375,45.3h0l2.23,53.663,2.183,67.945Z" transform="translate(-263.703 -130.277)" fill="#fff"/>
      <path id="Path_238" data-name="Path 238" d="M881.954,410.885c-2.971-1.24-18.707-19.206-18.707-19.206V387.59c-.573-1.347-3.981-.525-6.736.418L857.7,363.17l1.347,1.118C861.987,374.7,881.63,410.285,881.954,410.885Z" transform="translate(-290.105 -131.022)" opacity="0.1"/>
      <path id="Path_239" data-name="Path 239" d="M883.061,408.695c-2.978-1.246-18.714-19.206-18.714-19.206v-4.1c-.573-1.347-3.975-.525-6.736.418L858.775,361l1.347,1.112C863.094,372.513,882.731,408.088,883.061,408.695Z" transform="translate(-290.464 -130.314)" fill="#fff"/>
      <path id="Path_240" data-name="Path 240" d="M827.146,563.841c.37,0,19.206-1.981,19.206-1.981s11.4,22.433,10.657,27.883-2.1,10.287-6.689,9.431-24.69.674-24.69.674Z" transform="translate(-280.027 -195.864)" opacity="0.1"/>
      <path id="Path_241" data-name="Path 241" d="M826.036,561.631c.377,0,19.213-1.981,19.213-1.981s11.4,22.466,10.657,27.855-2.109,10.287-6.689,9.431-24.7.674-24.7.674Z" transform="translate(-279.665 -195.143)" fill="#fff"/>
      <path id="Path_242" data-name="Path 242" d="M842.85,547s17.286,9.3,17.656,12.126-8.8-1.24-10.778-1.738a25.689,25.689,0,0,0-3.968-.62l-13.21.357Z" transform="translate(-282.286 -191.014)" fill="#cf6f80"/>
      <circle id="Ellipse_31" data-name="Ellipse 31" cx="1.819" cy="1.819" r="1.819" transform="translate(585.2 277.384)" opacity="0.1"/>
      <circle id="Ellipse_32" data-name="Ellipse 32" cx="1.819" cy="1.819" r="1.819" transform="translate(585.2 276.643)" fill="#3f3d56"/>
      <circle id="Ellipse_33" data-name="Ellipse 33" cx="1.819" cy="1.819" r="1.819" transform="translate(588.548 356.121)" opacity="0.1"/>
      <circle id="Ellipse_34" data-name="Ellipse 34" cx="1.819" cy="1.819" r="1.819" transform="translate(588.548 355.373)" fill="#3f3d56"/>
      <circle id="Ellipse_35" data-name="Ellipse 35" cx="1.819" cy="1.819" r="1.819" transform="translate(587.019 316.752)" opacity="0.1"/>
      <circle id="Ellipse_36" data-name="Ellipse 36" cx="1.819" cy="1.819" r="1.819" transform="translate(587.019 316.011)" fill="#3f3d56"/>
      <path id="Path_243" data-name="Path 243" d="M935.6,496.927s1.24,1.859,0,2.695.121,2.978.121,2.978-3.092,1.805-1.731,3.442.5,8.987.5,8.987l-3.719,6.191s.222,3.968.236,9.33c0,8.367-.492,20.129-3.213,25.491l.364,44s-13.022,4.763-23.921,3.308l-1.617-70.6s2.358-40.035,3.227-47.715a79.913,79.913,0,0,0,.62-12.025s-.37-12.018-1.617-17.589c0,0-1.347-24.171-1.482-30.86-.061-3.2.108-12.537.3-21.415.209-9.707.445-18.862.445-18.862l-2.459-19.462s2.459-.243,3.2.741a7.1,7.1,0,0,0,1.078.829h0c4.251,2.87,19.246,11.695,19.246,11.695s8.3,3.3,10.287,8.03,3.368,8.084,4.331,9.431,1.489,7.68,1.489,7.68,2.856,11.654,5.086,13.628,3.833,14.5,3.833,14.5l-19.7,15.494s-1.731,25.774-2.1,26.771S935.6,496.927,935.6,496.927Z" transform="translate(-304.836 -131.551)" fill="#fff"/>
      <path id="Path_244" data-name="Path 244" d="M936.34,496.813s1.233,1.859,0,2.695.115,2.978.115,2.978-3.092,1.805-1.731,3.442.5,8.987.5,8.987l-3.705,6.191s.222,3.968.243,9.33c0,8.367-.492,20.129-3.213,25.491l.37,44s-13.022,4.763-23.921,3.308l-1.61-70.6s2.351-40.035,3.227-47.715a79.184,79.184,0,0,0,.613-12.025s-.371-12.018-1.61-17.589c0,0-1.347-24.171-1.489-30.86-.061-3.2.108-12.537.3-21.415.209-9.707.445-18.862.445-18.862L901.62,364.44s3.247,0,3.995,1a6.394,6.394,0,0,0,1.078.829h0c4.244,2.87,19.24,11.695,19.24,11.695s8.279,3.3,10.3,8.03,3.368,8.084,4.332,9.431,1.489,7.68,1.489,7.68,2.856,11.654,5.086,13.628,3.84,14.5,3.84,14.5l-19.7,15.494s-1.731,25.774-2.109,26.771S936.34,496.813,936.34,496.813Z" transform="translate(-304.827 -131.436)" fill="#fff"/>
      <path id="Path_245" data-name="Path 245" d="M913.1,390.6l1.785,5.187-9.37,9.431c.209-9.707.445-18.862.445-18.862L902.71,366.64s3.247,0,3.995,1a6.4,6.4,0,0,0,1.078.829h0l7.963,22.965Z" transform="translate(-305.182 -132.154)" opacity="0.1"/>
      <path id="Path_246" data-name="Path 246" d="M911.968,388.385l1.785,5.18L904.389,403c.2-9.707.445-18.862.445-18.862L901.58,364.41s3.254,0,3.995,1a6.739,6.739,0,0,0,1.078.829h0l8.01,22.985Z" transform="translate(-304.814 -131.426)" fill="#fff"/>
      <path id="Path_247" data-name="Path 247" d="M894.671,312.642a22.977,22.977,0,0,1-1.132,7.147.956.956,0,0,1-.727-.175c-.182-6.063-3.159-11.762-6.831-16.605a17.589,17.589,0,0,0-3.705-3.84,7.255,7.255,0,0,0-5.025-1.421c-2.021.276-3.806,1.65-5.847,1.826-2.695.222-5.106-1.644-7.781-1.731A7.626,7.626,0,0,0,857.9,300.5a15.6,15.6,0,0,0-3.065,5.679,33.263,33.263,0,0,0-1.711,9.808c-.034,1.886-.216,4.251-1.967,4.938a10.037,10.037,0,0,0-2.54-7.68l-.04-.047v-.552a23.052,23.052,0,0,1,46.1,0Z" transform="translate(-287.517 -107.009)" opacity="0.1"/>
      <path id="Path_248" data-name="Path 248" d="M877.8,268.749a15.871,15.871,0,0,0-11.2-.876c-1.866.552-3.624,1.448-5.517,1.9-4.042.977-8.758-.081-12.227,2.284-1.927,1.347-3.085,3.476-4.163,5.551L842,282.734a33.312,33.312,0,0,0-3.564,8.757c-.613,3.092-.242,6.555,1.718,9.047,1.421,1.805,3.537,2.944,5.086,4.648a10.1,10.1,0,0,1,2.533,7.7c1.751-.674,1.927-3.052,1.967-4.938a33.31,33.31,0,0,1,1.711-9.808,15.6,15.6,0,0,1,3.065-5.679,7.632,7.632,0,0,1,5.719-2.661c2.695.094,5.113,1.96,7.781,1.731,2.021-.168,3.813-1.543,5.847-1.819a7.221,7.221,0,0,1,5.025,1.421,17.26,17.26,0,0,1,3.7,3.84c3.678,4.85,6.662,10.522,6.837,16.606.761.552,1.859-.175,2.237-1.037a24.651,24.651,0,0,1,.869-2.695,9.962,9.962,0,0,1,2.439-2.176c2.1-1.812,2.627-4.864,2.546-7.633s-.62-5.578-.094-8.3c.316-1.664,1.031-3.234,1.421-4.884a6.386,6.386,0,0,0-.485-4.924c-1.347-2.082-4.183-2.5-6.656-2.695-2.809-.243-5.322.067-7.114-2.3a26.329,26.329,0,0,0-2.829-3.463C881.391,271.12,877.8,268.9,877.8,268.749Z" transform="translate(-284.119 -99.715)" fill="#512e4e"/>
      <path id="Path_249" data-name="Path 249" d="M783.793,474.058,776.76,461.05l-2.23,20.075s1.24,8.919.99,10.287,5.079,13.628,5.079,13.628,17.6,31.359,24.79,32.969l24.251-17.353-6.44-8.178s-2.23-.869-2.789,0c0,0-11.964-20.573-13.2-22.055s-1-4.466-1-4.466-1.859-1.981-1.24-3.84-3.557-8.3-3.557-8.3l3.84-3.591Z" transform="translate(-263.351 -162.965)" opacity="0.1"/>
      <path id="Path_250" data-name="Path 250" d="M776.409,458.84l-1.859,1.489L772.32,480.4s1.24,8.919.99,10.287,5.086,13.628,5.086,13.628,17.6,31.358,24.784,32.968l24.292-17.353-6.447-8.178s-2.23-.869-2.789,0c0,0-11.957-20.573-13.2-22.055s-.99-4.466-.99-4.466-1.859-1.981-1.24-3.84-3.6-8.3-3.6-8.3l3.84-3.591Z" transform="translate(-262.63 -162.243)" fill="#fff"/>
      <path id="Path_251" data-name="Path 251" d="M942.848,569.811c1.347,1.637.5,8.993.5,8.993l-3.719,6.15s.222,3.975.236,9.337l-6.252,1.954a3.719,3.719,0,0,1-4.823-3.665l1.085-34.76,14.585,5.571c-1.24.862.121,2.978.121,2.978S941.488,568.174,942.848,569.811Z" transform="translate(-313.693 -194.545)" opacity="0.1"/>
      <path id="Path_252" data-name="Path 252" d="M943.955,568.708c1.347,1.63.5,8.986.5,8.986l-3.705,6.157s.222,3.968.242,9.33l-6.366,1.987a3.631,3.631,0,0,1-4.716-3.577l1.085-34.882,14.578,5.585c-1.246.862.114,2.978.114,2.978S942.594,567.071,943.955,568.708Z" transform="translate(-314.058 -194.183)" fill="#fff"/>
      <path id="Path_253" data-name="Path 253" d="M952.286,547.272s-.99,6.326-3.469,6.7-3.591,10.233-6.063,9.889-.835-9.175-.748-10.886-2.695-8.8-.62-10.408,8.677,0,8.677,0Z" transform="translate(-317.553 -189.333)" fill="#cf6f80"/>
      <path id="Path_254" data-name="Path 254" d="M956.271,473.031l4.668-9.431s1.866,7.188,1.866,11.028,2.6,4.217,2.6,4.217,2.849,3.368,1.347,5.827-2.1,8.549-2.1,8.549.492,11.647-1.738,13.258-2.728,5.457-2.728,5.457-4.089,7.309-3.961,9.047-5.7,13.507-5.7,13.507,2.85-14.625-13.756-20.944c0,0-.128-4.958,1.111-6.319s3.173-2.021,1.96-8.865-.35-15.1-.35-16.747,3.719-11.937,3.719-11.937Z" transform="translate(-316.296 -163.797)" opacity="0.1"/>
      <path id="Path_255" data-name="Path 255" d="M959.08,461.6l4.082,1.347s1.866,7.188,1.866,11.028,2.6,4.217,2.6,4.217,2.849,3.368,1.347,5.827-2.108,8.549-2.108,8.549.5,11.647-1.731,13.258-2.694,5.457-2.694,5.457-4.089,7.309-3.961,9.047-5.706,13.507-5.706,13.507,2.849-14.625-13.756-20.944c0,0-.121-4.958,1.118-6.319s3.173-2.021,1.96-8.865-.35-15.1-.35-16.747,3.719-11.937,3.719-11.937Z" transform="translate(-317.031 -163.144)" fill="#fff"/>
      <path id="Path_256" data-name="Path 256" d="M834.92,823.4s6.508-4.089,10.778-1.118S834.92,823.4,834.92,823.4Z" transform="translate(-283.059 -280.5)" opacity="0.1"/>
      <path id="Path_257" data-name="Path 257" d="M910,805.682a13.174,13.174,0,0,1,10.6,4.466C925.433,815.356,910,805.682,910,805.682Z" transform="translate(-307.561 -275.423)" opacity="0.1"/>
      <g id="Group_22" data-name="Group 22" transform="translate(554.04 182.359)" opacity="0.1">
        <path id="Path_258" data-name="Path 258" d="M899.633,314.344c-.829.721-1.893,1.226-2.445,2.176a25.112,25.112,0,0,0-.862,2.695c-.377.869-1.475,1.59-2.243,1.037-.175-6.063-3.159-11.755-6.831-16.606a17.228,17.228,0,0,0-3.7-3.833,7.242,7.242,0,0,0-5.032-1.428c-2.021.276-3.8,1.65-5.841,1.826-2.695.222-5.113-1.644-7.787-1.731a7.6,7.6,0,0,0-5.712,2.654,15.6,15.6,0,0,0-3.065,5.679,33.3,33.3,0,0,0-1.711,9.808c-.04,1.879-.216,4.224-1.954,4.924a9.353,9.353,0,0,1,0,1.5c1.758-.674,1.933-3.052,1.974-4.938a33.307,33.307,0,0,1,1.711-9.808,15.6,15.6,0,0,1,3.065-5.679,7.625,7.625,0,0,1,5.713-2.661c2.695.094,5.12,1.96,7.787,1.731,2.021-.168,3.813-1.543,5.841-1.819a7.242,7.242,0,0,1,5.032,1.421,17.26,17.26,0,0,1,3.7,3.84c3.672,4.85,6.656,10.522,6.831,16.605.768.552,1.866-.175,2.243-1.037a26.129,26.129,0,0,1,.862-2.695,9.993,9.993,0,0,1,2.445-2.176c2.1-1.812,2.627-4.864,2.546-7.632v-.256C902.065,310.356,901.425,312.8,899.633,314.344Z" transform="translate(-842.82 -292.228)"/>
        <path id="Path_259" data-name="Path 259" d="M845.232,316.465c-1.543-1.7-3.658-2.85-5.079-4.655a9.775,9.775,0,0,1-1.96-5.51,10.381,10.381,0,0,0,1.96,7c1.421,1.805,3.537,2.944,5.079,4.648a10.1,10.1,0,0,1,2.547,6.009,10.1,10.1,0,0,0-2.547-7.491Z" transform="translate(-838.155 -294.821)"/>
        <path id="Path_260" data-name="Path 260" d="M927.438,290.56c-.4,1.65-1.1,3.22-1.428,4.884a15.6,15.6,0,0,0-.209,3.409,13.073,13.073,0,0,1,.209-1.92c.323-1.664,1.031-3.234,1.428-4.884a8.463,8.463,0,0,0,.222-2.789,9.367,9.367,0,0,1-.222,1.3Z" transform="translate(-866.752 -289.26)"/>
      </g>
      <ellipse id="Ellipse_37" data-name="Ellipse 37" cx="65.641" cy="10.543" rx="65.641" ry="10.543" transform="translate(23.933 544.029)" fill="#ec4b4b" opacity="0.1"/>
      <rect id="Rectangle_85" data-name="Rectangle 85" width="4.224" height="95.099" transform="translate(87.465 352.604)" fill="#535461"/>
      <path id="Path_261" data-name="Path 261" d="M163.456,679.6l-.269,4.284-.37,6.063-.155,2.519-.377,6.063-.162,2.52-.37,6.063-4.264,68.76a11.641,11.641,0,0,1-11.62,10.927H123.724a11.634,11.634,0,0,1-11.62-10.974l-4.264-68.76-.371-6.063-.155-2.52-.384-6.063-.155-2.519-.371-6.063-.269-4.284a6.063,6.063,0,0,1,6.022-6.406h45.283a6.063,6.063,0,0,1,6.016,6.454Z" transform="translate(-45.219 -232.183)" fill="#3f3d56"/>
      <path id="Path_262" data-name="Path 262" d="M147.369,670.52l-.377,6.049H90.957l-.377-6.049Z" transform="translate(-29.401 -218.822)" fill="#9d9cb5"/>
      <path id="Path_263" data-name="Path 263" d="M147.095,683.24l-.371,6.049H91.747l-.377-6.049Z" transform="translate(-29.659 -222.973)" fill="#9d9cb5"/>
      <path id="Path_264" data-name="Path 264" d="M146.82,695.97l-.371,6.043H92.537l-.377-6.043Z" transform="translate(-29.916 -227.127)" fill="#9d9cb5"/>
      <path id="Path_265" data-name="Path 265" d="M70.709,585.795c24.6,17.8,34.848,45.633,34.848,45.633s-29.641-1.017-54.249-18.815S16.44,567,16.44,567,46.081,568,70.709,585.795Z" transform="translate(-15.95 -197.541)" fill="#ec4b4b"/>
      <path id="Path_266" data-name="Path 266" d="M16.44,567s30.766,17.077,40.635,31.217,48.456,33.225,48.456,33.225" transform="translate(-15.95 -197.541)" fill="none" stroke="#535461" stroke-miterlimit="10" stroke-width="2"/>
      <path id="Path_267" data-name="Path 267" d="M106.226,536.72c13.392,9.68,18.97,24.831,18.97,24.831S109.029,561,95.67,551.318,76.7,526.48,76.7,526.48,92.841,527.032,106.226,536.72Z" transform="translate(-35.616 -184.318)" fill="#ec4b4b"/>
      <path id="Path_268" data-name="Path 268" d="M76.7,526.48s16.747,9.3,22.123,16.99S125.2,561.55,125.2,561.55" transform="translate(-35.616 -184.318)" fill="none" stroke="#535461" stroke-miterlimit="10" stroke-width="2"/>
      <path id="Path_269" data-name="Path 269" d="M168.543,566.631c-15.38,16.9-18.633,38.991-18.633,38.991s21.685-5.322,37.051-22.231S205.594,544.4,205.594,544.4,183.923,549.729,168.543,566.631Z" transform="translate(-59.508 -190.166)" fill="#ec4b4b"/>
      <path id="Path_270" data-name="Path 270" d="M205.608,544.41s-20.034,17.326-25.127,29.264-30.57,31.951-30.57,31.951" transform="translate(-59.508 -190.169)" fill="none" stroke="#535461" stroke-miterlimit="10" stroke-width="2"/>
    </g>
  </g>
</svg>
