<svg xmlns="http://www.w3.org/2000/svg" width="349" height="334.899" viewBox="0 0 349 334.899">
  <g id="Group_25" data-name="Group 25" transform="translate(0.081)">
    <ellipse id="Ellipse_61" data-name="Ellipse 61" cx="174.5" cy="161" rx="174.5" ry="161" transform="translate(-0.081)" fill="#202a85" opacity="0.78"/>
    <g id="social" transform="translate(8.126 50.601)">
      <ellipse id="Ellipse_49" data-name="Ellipse 49" cx="34.856" cy="71.12" rx="34.856" ry="71.12" transform="translate(10.306 49.686)" fill="#536dfe"/>
      <path id="Path_305" data-name="Path 305" d="M265.376,302.978c1.739-30.958,5.242-51.869,5.277-52.076l-.76-.129c-.035.208-3.545,21.152-5.286,52.15-1.607,28.609-1.995,71.882,5.286,115.567l.76-.127C263.385,374.753,263.772,331.545,265.376,302.978Z" transform="translate(-220.535 -181.435)" fill="#3f3d56"/>
      <rect id="Rectangle_91" data-name="Rectangle 91" width="35.745" height="0.771" transform="translate(44.8 123.25) rotate(-28.157)" fill="#3f3d56"/>
      <rect id="Rectangle_92" data-name="Rectangle 92" width="0.771" height="35.745" transform="translate(11.529 115.516) rotate(-61.858)" fill="#3f3d56"/>
      <ellipse id="Ellipse_50" data-name="Ellipse 50" cx="45.22" cy="92.266" rx="45.22" ry="92.266" transform="translate(241.635)" fill="#536dfe"/>
      <path id="Path_306" data-name="Path 306" d="M925.644,198.565c2.256-40.169,6.8-67.3,6.847-67.571l-.721-.122c-.046.27-4.6,27.434-6.856,67.641-2.085,37.109-2.588,93.238,6.856,149.9l.721-.12C923.06,291.7,923.562,235.634,925.644,198.565Z" transform="translate(-639.338 -105.354)" fill="#3f3d56"/>
      <rect id="Rectangle_93" data-name="Rectangle 93" width="46.373" height="0.731" transform="translate(286.449 95.557) rotate(-28.157)" fill="#3f3d56"/>
      <rect id="Rectangle_94" data-name="Rectangle 94" width="0.731" height="46.373" transform="translate(243.286 85.287) rotate(-61.858)" fill="#3f3d56"/>
      <ellipse id="Ellipse_51" data-name="Ellipse 51" cx="16.895" cy="34.473" rx="16.895" ry="34.473" transform="translate(215.478 140.575)" fill="#e6e6e6"/>
      <path id="Path_307" data-name="Path 307" d="M753.046,498.138l.1.187,15.276-8.176-.345-.645-15,8.028A257.265,257.265,0,0,1,755.64,471.8l-.721-.122a267,267,0,0,0-2.77,30.021l-15.128-8.1-.345.645,15.276,8.176.182-.341a254.818,254.818,0,0,0,2.785,50.95l.721-.12C752.329,533.046,752.256,513.219,753.046,498.138Z" transform="translate(-520.688 -321.605)" fill="#3f3d56"/>
      <path id="Path_308" data-name="Path 308" d="M463.669,703c-89.99-28.487-171.591-26.97-224.2-20.68-57,6.814-93.161,20.535-93.52,20.673l-.262-.682c.36-.138,36.61-13.892,93.694-20.716A543.427,543.427,0,0,1,340.577,679a527.842,527.842,0,0,1,123.311,23.3Z" transform="translate(-145.688 -452.369)" fill="#3f3d56"/>
      <path id="Path_309" data-name="Path 309" d="M462.2,716.586s.252-5.288,5.426-4.674" transform="translate(-346.525 -474.011)" fill="#3f3d56"/>
      <circle id="Ellipse_52" data-name="Ellipse 52" cx="2.589" cy="2.589" r="2.589" transform="translate(111.624 232.364)" fill="#536dfe"/>
      <rect id="Rectangle_95" data-name="Rectangle 95" width="0.731" height="5.117" transform="translate(113.792 239.314)" fill="#3f3d56"/>
      <path id="Path_310" data-name="Path 310" d="M720.2,719.586s.252-5.288,5.426-4.674" transform="translate(-510.234 -475.914)" fill="#3f3d56"/>
      <circle id="Ellipse_53" data-name="Ellipse 53" cx="2.589" cy="2.589" r="2.589" transform="translate(205.915 233.46)" fill="#536dfe"/>
      <rect id="Rectangle_96" data-name="Rectangle 96" width="0.731" height="5.117" transform="translate(208.083 240.411)" fill="#3f3d56"/>
      <path id="Path_311" data-name="Path 311" d="M295.2,694.586s.252-5.288,5.426-4.674" transform="translate(-240.558 -460.051)" fill="#3f3d56"/>
      <circle id="Ellipse_54" data-name="Ellipse 54" cx="2.589" cy="2.589" r="2.589" transform="translate(50.591 224.324)" fill="#536dfe"/>
      <rect id="Rectangle_97" data-name="Rectangle 97" width="0.731" height="5.117" transform="translate(52.759 231.274)" fill="#3f3d56"/>
      <path id="Path_312" data-name="Path 312" d="M404.2,675.586s.252-5.288,5.426-4.674" transform="translate(-309.722 -447.995)" fill="#3f3d56"/>
      <circle id="Ellipse_55" data-name="Ellipse 55" cx="2.589" cy="2.589" r="2.589" transform="translate(90.427 217.38)" fill="#536dfe"/>
      <rect id="Rectangle_98" data-name="Rectangle 98" width="0.731" height="5.117" transform="translate(92.595 224.33)" fill="#3f3d56"/>
      <path id="Path_313" data-name="Path 313" d="M677.2,702.586s.252-5.288,5.426-4.674" transform="translate(-482.949 -465.127)" fill="#3f3d56"/>
      <circle id="Ellipse_56" data-name="Ellipse 56" cx="2.589" cy="2.589" r="2.589" transform="translate(190.2 227.247)" fill="#536dfe"/>
      <rect id="Rectangle_99" data-name="Rectangle 99" width="0.731" height="5.117" transform="translate(192.368 234.198)" fill="#3f3d56"/>
      <path id="Path_314" data-name="Path 314" d="M967.592,681.78l15.042,22.3-14,14-1.815-3.631,3.112-7.262s-.519-6.743-2.334-8.558-9.855-12.708-9.855-12.708Z" transform="translate(-660.958 -454.922)" fill="#ffb8b8"/>
      <path id="Path_315" data-name="Path 315" d="M888.963,484.5s2.852,4.514-3.113,23.965c0,0,27.823,46.958,23.414,50.07s-16.34,10-19.452,7.925S864.066,494.1,864.066,494.1Z" transform="translate(-601.521 -329.745)" fill="#2f2e41"/>
      <path id="Path_316" data-name="Path 316" d="M979.815,731.808l4.539,4.539c2.334,2.334,3.89,5.706-.519,8.558s-19.711,13.486-24.9,10.115,6.224-6.484,6.224-6.484,1.887-7,2.889-5.443,1,4.665,1,4.665Z" transform="translate(-660.861 -486.666)" fill="#2f2e41"/>
      <path id="Path_317" data-name="Path 317" d="M817.892,711.08s-8.3,15.3-8.3,17.117.519,7,.519,7l-15.82,3.89-5.446-2.593,1.815-4.668s9.855-3.372,11.93-9.855S807,708.745,807,708.745Z" transform="translate(-553.791 -472.033)" fill="#ffb8b8"/>
      <circle id="Ellipse_57" data-name="Ellipse 57" cx="10.893" cy="10.893" r="10.893" transform="translate(262.804 65.025)" fill="#ffb8b8"/>
      <path id="Path_318" data-name="Path 318" d="M886.774,288.02l5.2,14.942,11.4-5.087s-7.78-11.93-7.78-13.486Z" transform="translate(-615.93 -202.766)" fill="#ffb8b8"/>
      <path id="Path_319" data-name="Path 319" d="M849.842,439.8h13.745s9.855,15.042,4.15,30.862a82.028,82.028,0,0,0-2.607,9.828c-1.991,9.227-3.973,21.726-6,33.211-2.853,16.133-5.8,30.265-9.011,30.522-6.484.519-19.092.432-19.092-2.161s8.445-77.624,8.445-77.624l1.815-3.112.343-13.556A8.177,8.177,0,0,1,849.842,439.8Z" transform="translate(-580.554 -301.376)" fill="#2f2e41"/>
      <path id="Path_320" data-name="Path 320" d="M791.9,761.613s2.982,5.057,2.2,8.688-2.075,3.112-7.78,3.631-25.157.519-25.157-3.112,15.173-8.346,15.237-6.9.583,4.3-.973,4.821-.13.13-.13.13Z" transform="translate(-536.23 -505.579)" fill="#2f2e41"/>
      <path id="Path_321" data-name="Path 321" d="M867.029,524.111s-1.128,18.423-8.653,12.938,2.932-15.392,2.932-15.392Z" transform="translate(-596.183 -353.32)" fill="#fff"/>
      <path id="Path_322" data-name="Path 322" d="M881.31,360.274a2.184,2.184,0,0,0,2.236-.265,2.291,2.291,0,0,0,.848-1.445c1.088-6.272,2.412-23.658,3.175-32.45a37.061,37.061,0,0,0-3.865-19.629l-2.818-3.875a2.212,2.212,0,0,0-2.649-.743s-8.8,9.128-8.83,9.48c-.138,1.513-1.185,4.867-6.642,10.324-5.971,5.971-6,11.183-5.872,12.638q.013.143.013.287a6.4,6.4,0,0,0,.263,1.93c2.5,7.885.542,17.326-2.6,27.18a2.223,2.223,0,0,0,.9,2.412c.919.625-.183-.3.145.1,2.168,2.656,5.287-1.046,8.855-5.085,1.243-1.407,2.652-3,4.313-4.663,2.283-2.283,6.645,2.927,8.673,2.927a9.417,9.417,0,0,1,3.861.879Z" transform="translate(-595.446 -213.746)" fill="#575a89"/>
      <path id="Path_323" data-name="Path 323" d="M889.114,325.692s5.7,4.8,2.461,11.036-2.806,10.827-2.806,10.827-.862,42.806-10.975,40.726l-4.6,12.7-8.308-3,4.8-11.2s-3.848-.239-2.724-2.861c.79-1.841,5.044-21.825,7.507-33.558,1.044-4.972,1.766-8.462,1.766-8.462S879.511,324.4,889.114,325.692Z" transform="translate(-602.04 -228.93)" fill="#575a89"/>
      <path id="Path_324" data-name="Path 324" d="M783.2,321.753,780,342.771l1.728-22.474Z" transform="translate(-494.932 -203.238)" opacity="0.2"/>
      <path id="Path_325" data-name="Path 325" d="M861.939,237.308s-1.831-14.252,13.11-9.578c0,0,10.672-1.958,14.171,11.39l3.544,13.992-1.727-.94-.805,1.76-2.8.709-1.2-2.377-.579,2.886-22.921,2.285s10.266-6.071,10.429-16.952l-1.955,2.066Z" transform="translate(-600.126 -166.217)" fill="#2f2e41"/>
      <path id="Path_326" data-name="Path 326" d="M763.014,524.07l5.111-34.057-4.157,36.766Z" transform="translate(-484.155 -310.928)" opacity="0.2"/>
      <circle id="Ellipse_58" data-name="Ellipse 58" cx="5.764" cy="5.764" r="5.764" transform="translate(281.448 55.89)" fill="#2f2e41"/>
      <path id="Path_327" data-name="Path 327" d="M914.039,216.44a5.759,5.759,0,0,1,5.761-5.387c-.119-.015-.237-.033-.358-.041a5.764,5.764,0,1,0-.74,11.5c.121.008.241,0,.361,0A5.759,5.759,0,0,1,914.039,216.44Z" transform="translate(-632.766 -156.198)" fill="#2f2e41"/>
      <path id="Path_328" data-name="Path 328" d="M732.061,337.27l-5.071,27.178,6.573-30.019Z" transform="translate(-461.297 -212.206)" opacity="0.2"/>
      <path id="Path_329" data-name="Path 329" d="M871.6,276.618l-2.956,2.228c-3.044-1.532-5.327-5.076-6.156-8.458l3.221-1.625C865.96,272.213,868.409,274.507,871.6,276.618Z" transform="translate(-600.519 -192.85)" fill="#fff"/>
      <path id="Path_330" data-name="Path 330" d="M877.565,269.254H870.2a.245.245,0,0,1,0-.491h7.364a.245.245,0,1,1,0,.491Z" transform="translate(-605.258 -192.85)" fill="#fff"/>
      <path id="Path_331" data-name="Path 331" d="M886.321,280.88a.245.245,0,0,1-.228-.337l1.964-4.909a.245.245,0,1,1,.455.182l-1.964,4.909a.245.245,0,0,1-.228.154Z" transform="translate(-615.487 -197.112)" fill="#fff"/>
      <ellipse id="Ellipse_59" data-name="Ellipse 59" cx="1.801" cy="2.522" rx="1.801" ry="2.522" transform="translate(271.001 74.261)" fill="#ffb8b8"/>
      <path id="Path_332" data-name="Path 332" d="M399.191,200.84l19.182,4.39,8.1-15.286-16.4-6.4Z" transform="translate(-253.299 -116.462)" fill="#2f2e41"/>
      <path id="Path_333" data-name="Path 333" d="M547.786,509.94s-6.166,14.13-6.166,18.241c0,0,2.441,11.176,1.67,14.259l-2.7,5.781-5.652-2.312L533.4,530.493l.257-24.664Z" transform="translate(-391.702 -343.276)" fill="#ffb9b9"/>
      <path id="Path_334" data-name="Path 334" d="M581.117,281.782s.514,8.478-.514,11.047,3.854,7.451,3.854,7.451l7.708-10.02s-5.138-5.138-3.854-10.791Z" transform="translate(-421.565 -199.644)" fill="#ffb9b9"/>
      <path id="Path_335" data-name="Path 335" d="M532.435,445.758s-7.451,13.874-.257,12.846,4.753-13.231,4.753-13.231" transform="translate(-388.941 -304.915)" fill="#e6e6e6"/>
      <path id="Path_336" data-name="Path 336" d="M397.127,316.521l2.441-24.279-.128-14.773-5.652,1.027v13.617l-1.156,24.793" transform="translate(-249.136 -176.063)" fill="#ffb9b9"/>
      <path id="Path_337" data-name="Path 337" d="M523.03,602.991l11.047-4.368,1.285,21.838s2.312,6.68,1.542,9.249c0,0,.514,4.368-.771,4.624s-4.881.771-5.138.514-.257-1.028-.257-1.028-2.569,1.8-2.826,3.854c0,0-10.791,3.34-11.047.257s5.4-5.652,5.4-5.652l4.368-6.68Z" transform="translate(-381.205 -402.157)" fill="#2f2e41"/>
      <path id="Path_338" data-name="Path 338" d="M610.7,509.94s-6.166,14.13-6.166,18.241c0,0,2.441,11.176,1.67,14.259l-2.7,5.781-5.652-2.312-1.542-15.415.257-24.664Z" transform="translate(-431.625 -343.276)" fill="#ffb9b9"/>
      <path id="Path_339" data-name="Path 339" d="M587,602.991l11.048-4.368,1.285,21.838s2.312,6.68,1.542,9.249c0,0,.514,4.368-.771,4.625s-4.881.771-5.138.514-.257-1.028-.257-1.028-2.569,1.8-2.826,3.854c0,0-10.791,3.34-11.047.257s5.4-5.652,5.4-5.652l4.368-6.68Z" transform="translate(-421.797 -402.157)" fill="#2f2e41"/>
      <path id="Path_340" data-name="Path 340" d="M583.234,255.355a8.222,8.222,0,0,1-16.244,1.8,7.964,7.964,0,0,1-.2-1.8,8.222,8.222,0,1,1,16.445,0Z" transform="translate(-412.89 -179.125)" fill="#ffb9b9"/>
      <path id="Path_341" data-name="Path 341" d="M558.2,308.866l6.38-3.313,2.869,2.285s6.937-.257,9.506,2.826,3.982,10.919,3.982,10.919-8.478-1.8-7.451,5.4l-1.541-4.111-1.413,3.468-17.214,5.909-7.708-13.1s-5.138-1.542-6.937,2.055c0,0,.385-12.974,5.4-13.36,3.369-.259,5.909-.257,5.909-.257l2.826-.514,1.81-.642Z" transform="translate(-395.048 -216.194)" fill="#575a89"/>
      <path id="Path_342" data-name="Path 342" d="M563.763,387.115s13.488,40.465,9.634,46.117c0,0-14.388,7.194-43.162-2.569l11.69-45.346A39.737,39.737,0,0,1,563.763,387.115Z" transform="translate(-389.695 -266.311)" fill="#2f2e41"/>
      <path id="Path_343" data-name="Path 343" d="M581.159,338.736l3.8-13.045c-4.554-4.952-.623-15.934-.623-15.934l-5.495-1.177s-5.514,14.87-11.166,13.071-2.569-13.36-2.569-13.36l-5.138.514-2.312,8.992,1.67,19.14A71.8,71.8,0,0,1,581.159,338.736Z" transform="translate(-407.091 -217.932)" fill="#575a89"/>
      <path id="Path_344" data-name="Path 344" d="M486.757,316.521l1.8-24.408.514-14.644-5.652,1.027v13.617l-1.156,24.793" transform="translate(-306.009 -176.063)" fill="#ffb9b9"/>
      <path id="Path_345" data-name="Path 345" d="M622.066,445.758s-7.451,13.874-.257,12.846,4.753-13.231,4.753-13.231" transform="translate(-445.814 -304.915)" fill="#fff"/>
      <path id="Path_346" data-name="Path 346" d="M639.467,326.587s-.913-13.194-8.55-13.148V328.7S636.641,325.3,639.467,326.587Z" transform="translate(-453.581 -221.198)" fill="#575a89"/>
      <path id="Path_347" data-name="Path 347" d="M596.117,268.884a.21.21,0,0,1-.131-.373l4.193-3.354a.21.21,0,0,1,.262.328l-4.193,3.354A.21.21,0,0,1,596.117,268.884Z" transform="translate(-431.366 -190.532)" fill="#fff"/>
      <path id="Path_348" data-name="Path 348" d="M577.038,278.638c-.092.113-.184.226-.281.331a8.222,8.222,0,0,1-11.418-5.686l3.973-.731,7.725.731C575.269,275.439,575.483,276.185,577.038,278.638Z" transform="translate(-411.97 -195.255)" fill="#fff"/>
      <path id="Path_349" data-name="Path 349" d="M556.431,236.148s-4.249.8-5.232,6.1a9.733,9.733,0,0,0-.083,2.706c.1,1.02-.044,3.175-2.259,5.712a55.522,55.522,0,0,0-4.033,5.18h0l4.44,1.182,1.984-7.356a37.634,37.634,0,0,1,4.4-10.107l.041-.065s1.475,3.94,5.427,4.481l-1.219-1.6a50.3,50.3,0,0,0,7.239,3.487,1.72,1.72,0,0,1,.555,2.991l-.057.044c-1.925,1.462-5.854,4.952-4.3,8.328s-.258,3.991-.258,3.991l3.337-1.27,1.527-.654-.154,1.129,7.456.156s2.015-.012-1.564-5.391a5.079,5.079,0,0,1-.155-3.557,8.184,8.184,0,0,0,.827-3.75C574.12,242.456,571.836,231.424,556.431,236.148Z" transform="translate(-398.952 -171.426)" fill="#2f2e41"/>
      <path id="Path_350" data-name="Path 350" d="M240.734,560.469s0,34.888-8.007,44.039c0,0-1.716,4.576-2.288,6.291a24.038,24.038,0,0,1-1.144,2.86v2.288s-15.442-1.716-17.158-5.719L215,606.8s.572-.572,0-2.288a1.175,1.175,0,0,1,1.144-1.716l4-9.151-.572-37.748,2.86-52.047,24.593-1.144Z" transform="translate(-187.852 -341.292)" fill="#2f2e41"/>
      <path id="Path_351" data-name="Path 351" d="M189.411,799.2s4,12.011,0,12.583-38.892,1.144-38.32-3.432,12.011-4,12.011-4l12.011-7.435Z" transform="translate(-149.112 -527.978)" fill="#2f2e41"/>
      <path id="Path_352" data-name="Path 352" d="M281.486,505.833a25.952,25.952,0,0,1-3.432,15.442c-4.576,8.007-1.716,34.888-1.716,34.888l40.608,35.46s-8.007,13.727-10.867,13.155S258.036,567.6,258.036,567.6l-17.73-59.482Z" transform="translate(-205.726 -343.278)" fill="#2f2e41"/>
      <path id="Path_353" data-name="Path 353" d="M424.457,736.429s12.288,3.048,10.628,6.736-19.855,33.462-23.413,30.529,3.048-12.288,3.048-12.288l.15-14.125Z" transform="translate(-313.795 -489.599)" fill="#2f2e41"/>
      <path id="Path_354" data-name="Path 354" d="M282.264,191.915a13.159,13.159,0,0,1-15.7,12.9,12.762,12.762,0,0,1-3.38-1.163,13.146,13.146,0,0,1-6.848-8.6,12.957,12.957,0,0,1-.382-3.145,13.155,13.155,0,0,1,26.31,0Z" transform="translate(-215.655 -135.741)" fill="#a0616a"/>
      <path id="Path_355" data-name="Path 355" d="M295.316,227.453l-.582,16.928-11.069,4.373s-1.085-17.333-2.618-18.294S295.316,227.453,295.316,227.453Z" transform="translate(-231.511 -166.638)" fill="#a0616a"/>
      <path id="Path_356" data-name="Path 356" d="M247.833,265.59s15.442-15.442,19.446-14.871,4,2.288,4,3.432-1.144,1.716,0,2.288,2.288,0,2.288,1.716,10.295,18.874,6.863,37.748-7.435,28.025-5.719,38.32.572,12.583.572,12.583-42.9,3.432-43.468-.572,1.716-1.716-1.144-4.576-1.716-2.86-1.716-4.576S241.542,265.59,247.833,265.59Z" transform="translate(-198.383 -181.391)" fill="#575a89"/>
      <path id="Path_357" data-name="Path 357" d="M278.9,495.331s-6.863,16.587-12.011,12.583,2.288-17.73,2.288-17.73Z" transform="translate(-221.441 -333.348)" fill="#fff"/>
      <path id="Path_358" data-name="Path 358" d="M297.644,294.384s13.438,1.539,8.435,26.221-24.449,53.279-24.449,53.279l-13.155-6.291,17.158-33.745-4-21.162S279.342,292.668,297.644,294.384Z" transform="translate(-223.6 -209.041)" fill="#575a89"/>
      <path id="Path_359" data-name="Path 359" d="M137.748,342.279l-18.874,31.457,1.716,1.716Z" transform="translate(-75.429 -217.186)" opacity="0.2"/>
      <path id="Path_360" data-name="Path 360" d="M171.571,382.389l-15.138,24.8h5.148Z" transform="translate(-99.261 -242.637)" opacity="0.2"/>
      <rect id="Rectangle_100" data-name="Rectangle 100" width="0.814" height="42.234" transform="translate(37.354 185.119) rotate(-20.877)" opacity="0.2"/>
      <circle id="Ellipse_60" data-name="Ellipse 60" cx="0.814" cy="0.814" r="0.814" transform="translate(48.718 85.712)" fill="#d0cde1"/>
      <line id="Line_2" data-name="Line 2" x1="6.916" y2="22.375" transform="translate(42.616 86.525)" fill="none"/>
      <path id="Path_361" data-name="Path 361" d="M261.587,319.876a.407.407,0,0,0,.389-.287l6.916-22.375a.407.407,0,0,0-.777-.24L261.2,319.35a.407.407,0,0,0,.389.527Z" transform="translate(-218.972 -210.569)" fill="#d0cde1"/>
      <path id="Path_362" data-name="Path 362" d="M265.865,227.153l-3.287,3.127c-3.386-1.7-6.656-6.295-7.579-10.057l4.313-1.807C259.594,222.253,262.318,224.8,265.865,227.153Z" transform="translate(-215.049 -160.904)" fill="#fff"/>
      <path id="Path_363" data-name="Path 363" d="M273.225,220.055l-.039,0-7.645-1.092a.273.273,0,1,1,.077-.541l7.645,1.092a.273.273,0,0,1-.038.543Z" transform="translate(-221.59 -160.904)" fill="#fff"/>
      <path id="Path_364" data-name="Path 364" d="M283.51,233.546a.273.273,0,0,1-.238-.407l2.533-4.509a.273.273,0,1,1,.476.268l-2.533,4.509A.273.273,0,0,1,283.51,233.546Z" transform="translate(-232.967 -167.296)" fill="#fff"/>
      <path id="Path_365" data-name="Path 365" d="M275.361,189.184a18.934,18.934,0,0,0-3.455-1.029,9.038,9.038,0,0,1-6-10.133,5.17,5.17,0,0,0,.217-1.67c-.154-1.249-1.433-2.056-2.659-2.342a26.168,26.168,0,0,1-3.7-.705,5.607,5.607,0,0,1-3.271-4.5,9.287,9.287,0,0,1,1.241-5.6l.443,1.274a4.727,4.727,0,0,0,1.447-2.164,2.981,2.981,0,0,1,2.271,1.826c.711.419.813-1.3,1.6-1.556a1.41,1.41,0,0,1,.98.242c1.582.738,3.42.107,5.117-.3a19.263,19.263,0,0,1,8.942-.011,10.7,10.7,0,0,1,5.285,2.719,12.681,12.681,0,0,1,2.472,4.248,24.474,24.474,0,0,1,1.995,11.886,16.824,16.824,0,0,1-3.965,8.914c-1.132,1.3-4.825,5.854-6.85,5.078C274.918,194.392,278.359,190.769,275.361,189.184Z" transform="translate(-215.953 -125.106)" fill="#2f2e41"/>
    </g>
  </g>
</svg>
