<svg xmlns="http://www.w3.org/2000/svg" width="345" height="340.225" viewBox="0 0 345 340.225">
  <g id="Group_24" data-name="Group 24" transform="translate(0.49 0.078)">
    <ellipse id="Ellipse_48" data-name="Ellipse 48" cx="172.5" cy="159" rx="172.5" ry="159" transform="translate(-0.49 -0.078)" fill="#202a85" opacity="0.78"/>
    <g id="Group_23" data-name="Group 23" transform="translate(45.504 53.97)">
      <g id="wash_hands" data-name="wash hands" transform="translate(0)">
        <path id="Path_271" data-name="Path 271" d="M316.933,121.32l-2.818-.01-10.806-.033-2.4,0-7.279-.019-1.8-.01h-.8l-37.538-.1-.6,0h-.568l-2.282-.009-6.444-.014L240.5,121.1l-6.453-.019V27.628l79.6-7.03,2.818-.249Z" transform="translate(-132.133 -11.489)" opacity="0.2"/>
        <path id="Path_272" data-name="Path 272" d="M697.181,242.7v.009l-7.89-.023-2.917-.009-2.4,0-3.447-.009-1.376,0-2.451,0-1.273,0H674.9l-.784,0H674.1l-5.922-.014-1.071,0-15.183-.042-2.729-.009-11.135-.033-1.5,0h-.6a.014.014,0,0,0,0-.009H635.4l-2.282-.009-6.443-.014v0l-3.109-.009-2.137,0h-.479l-6.655-.019V149.015l82.42-7.279v.249Z" transform="translate(-515.198 -132.876)" fill="#e6e6e6"/>
        <circle id="Ellipse_38" data-name="Ellipse 38" cx="3.287" cy="3.287" r="3.287" transform="translate(137.132 0.642)" opacity="0.2"/>
        <circle id="Ellipse_39" data-name="Ellipse 39" cx="3.287" cy="3.287" r="3.287" transform="translate(135.254 0.642)" fill="#3f3d56"/>
        <rect id="Rectangle_87" data-name="Rectangle 87" width="51.659" height="3.757" transform="translate(114.521 4.114) rotate(-4.568)" opacity="0.2"/>
        <rect id="Rectangle_88" data-name="Rectangle 88" width="51.659" height="3.757" transform="translate(112.643 4.114) rotate(-4.568)" fill="#e6e6e6"/>
        <path id="Path_273" data-name="Path 273" d="M697.891,300.9c-2.761-10.463-4.231-11.271-4.231-11.271l-15.573-7.838-.1-.038-8.754,6.457-3.771-5.8-.188-.164-.235.094a86.163,86.163,0,0,0-13.488,6.847l-.16-.023-6.1,3.034-1.094,4.044L642.93,300.9l-4.349,20.2v0l3.109.009v0l6.443.014,1.014-4.978,1.268,4.987h.568a.014.014,0,0,1,0,.009h.6l1.5,0,11.135.033,2.729.009,15.183.042,1.071,0,5.922.014h.014l.784,0v-.014l.4-4.4.244-1.23,1.151,5.64,0,.009,2.452,0,1.376,0,3.447.009,2.4,0v-.009C700.732,316.8,698.9,304.753,697.891,300.9Z" transform="translate(-528.912 -211.926)" fill="#536dfe" opacity="0.56"/>
        <path id="Path_274" data-name="Path 274" d="M715.747,243.318l.006.021c-.007,0-.009-.006-.006-.021-.062-.215-.849-2.747-3.1-1.444-2.35,1.36-5.158-7.178-5.158-7.178s-7.073,1.947-11.391,1.649a2.674,2.674,0,0,1-.851-.2,11.02,11.02,0,0,0,2.075,12.527l-.762,6.8,3.919,6.1,8.709-6.531s.11,1.662.467-4.031a11.028,11.028,0,0,0,6.406-8.413C715.884,242.984,715.761,243.245,715.747,243.318Z" transform="translate(-560.285 -185.358)" fill="#ffb8b8" opacity="0.56"/>
        <path id="Path_275" data-name="Path 275" d="M715.364,233.464c.962-2.188,3.541-8.63-.988-12.512-3.746-3.211-16.961-6.077-21.185,2.449a2.652,2.652,0,0,0,1.359,3.621c.061-.126.13-.247.2-.371a2.6,2.6,0,0,0,.655.14c4.318.3,11.391-1.649,11.391-1.649s2.808,8.538,5.158,7.178c2.251-1.3,3.038,1.229,3.1,1.444.014-.073.137-.334.313-.736a11.1,11.1,0,0,0,.116-1.471c0,.087.007.173.007.26a11.094,11.094,0,0,1-.123,1.649Z" transform="translate(-559.589 -175.804)" fill="#2f2e41" opacity="0.56"/>
        <ellipse id="Ellipse_40" data-name="Ellipse 40" cx="72.323" cy="11.271" rx="72.323" ry="11.271" transform="translate(0 263.635)" fill="#e6e6e6"/>
        <path id="Path_276" data-name="Path 276" d="M281.895,448.422l-15.733,18.212-.291.338-92.226-14.089v-105.2H281.66Z" transform="translate(-98.034 -196.293)" fill="#3f3d56"/>
        <rect id="Rectangle_89" data-name="Rectangle 89" width="0.939" height="18.838" transform="matrix(0.075, -0.997, 0.997, 0.075, 84.733, 192.014)" fill="#e6e6e6"/>
        <rect id="Rectangle_90" data-name="Rectangle 90" width="0.939" height="19.775" transform="translate(130.76 196.242) rotate(-85.914)" fill="#e6e6e6"/>
        <path id="Path_277" data-name="Path 277" d="M265.614,407.79,173.1,402.154l-.057.938,42.3,2.576.719,84.573.939-.008-.718-84.507,49.28,3Z" transform="translate(-97.693 -227.044)" fill="#e6e6e6"/>
        <path id="Path_278" data-name="Path 278" d="M401.85,448.422l-15.733,18.212V347.686h15.5Z" transform="translate(-217.989 -196.293)" opacity="0.2"/>
        <path id="Path_279" data-name="Path 279" d="M563.964,457.486H555.51V451.85l22.542-4.227,1.409-2.818,88.29,2.348v7.984l-17.611,6.429-11.506-.324s-17.376,14.558-38.04,13.15S563.964,457.486,563.964,457.486Z" transform="translate(-482.013 -303.979)" fill="#e6e6e6"/>
        <path id="Path_280" data-name="Path 280" d="M669.063,459.242l-4.931,3.522-13.812-.333s0,0,0,0h-.023l-1.052-.023h0l-.874-.023-2.757-.066-.23,0-2.437-.056-.089,0-3.029-.07-.2,0-2.24-.056-.362,0-2.63-.066-.845-.019-4.729-.113-1.193-.028-12.567-.3s-8.956.446-9.379-2.156a1.286,1.286,0,0,1-.014-.193c0-1.479,1.559-1.794,3.034-1.756a13.689,13.689,0,0,1,2.6.348l3.607.089,2.25.052,7.059.174,6.035.146,2.137.056,3.057.075,1.212.028,4.5.108,2.1.052,4.443.108Z" transform="translate(-510.327 -311.136)" fill="#ccc"/>
        <circle id="Ellipse_41" data-name="Ellipse 41" cx="0.939" cy="0.939" r="0.939" transform="translate(131.497 148.575)" fill="#3f3d56"/>
        <ellipse id="Ellipse_42" data-name="Ellipse 42" cx="8.923" cy="0.939" rx="8.923" ry="0.939" transform="translate(123.983 145.288)" fill="#ccc"/>
        <path id="Path_281" data-name="Path 281" d="M3.483,0H11.5V3.757H0V3.483A3.483,3.483,0,0,1,3.483,0Z" transform="matrix(0.972, 0.237, -0.237, 0.972, 123.938, 133.464)" fill="#3f3d56"/>
        <path id="Path_282" data-name="Path 282" d="M0,0H4.227V.137A1.742,1.742,0,0,1,2.485,1.879H1.742A1.742,1.742,0,0,1,0,.137V0Z" transform="translate(124.38 137.237) rotate(8.546)" fill="#3f3d56"/>
        <path id="Path_283" data-name="Path 283" d="M680.475,436.795l-5.84-1.423a1.872,1.872,0,0,1-1.955,1.027l-.464-.07a1.872,1.872,0,0,1-1.588-1.934l-.994-.242a3.754,3.754,0,0,0-.329.859l1.323.323a1.872,1.872,0,0,0,1.588,1.935l.464.07a1.872,1.872,0,0,0,1.955-1.028l5.84,1.423.89-3.65-.216-.053Z" transform="translate(-546.257 -297.896)" opacity="0.2"/>
        <path id="Path_284" data-name="Path 284" d="M688.251,440.629h0a3.43,3.43,0,0,1-3.425-3.61l.514-9.775,6.34-.235V437.2a3.43,3.43,0,0,1-3.429,3.429Z" transform="translate(-555.018 -293.932)" fill="#3f3d56"/>
        <path id="Path_285" data-name="Path 285" d="M690.576,420.242h-5.709c.99-1.5.373-3.041-1.013-4.6a.625.625,0,0,1,.469-1.038H686.5c2.252,0,4.078,2.1,4.078,4.7Z" transform="translate(-554.383 -286.93)" fill="#3f3d56"/>
        <path id="Path_286" data-name="Path 286" d="M685.731,415.644a.625.625,0,0,1,.469-1.038h-1.879a.624.624,0,0,0-.469,1.038c1.386,1.557,2,3.1,1.013,4.6h1.879C687.734,418.74,687.117,417.2,685.731,415.644Z" transform="translate(-554.383 -286.93)" opacity="0.2"/>
        <path id="Path_287" data-name="Path 287" d="M623.905,440.262l7.222,2.553s17.18,1.371,14.951,5.741-16.933,1.547-16.933,1.547l-6.964-4.835Z" transform="translate(-519.654 -301.414)" fill="#ffb8b8"/>
        <path id="Path_288" data-name="Path 288" d="M644.263,452.593a1.874,1.874,0,0,0-1.869,1.783,1.4,1.4,0,0,0-.353-.237,1.884,1.884,0,1,0-1.568.257,1.407,1.407,0,1,0,2.355,1.276,1.875,1.875,0,1,0,1.435-3.077Z" transform="translate(-529.203 -307.305)" fill="#fff"/>
        <path id="Path_289" data-name="Path 289" d="M651.813,454.75a1.874,1.874,0,0,0-1.869,1.783,1.407,1.407,0,0,0-.353-.237,1.884,1.884,0,1,0-1.568.257,1.407,1.407,0,1,0,2.355,1.276,1.875,1.875,0,1,0,1.435-3.077Z" transform="translate(-533.466 -308.523)" fill="#fff"/>
        <path id="Path_290" data-name="Path 290" d="M566.55,368.067l-6.538,10.8-13.746-9.228-15.789-10.595-9.519-24.994-9.679-17.724,12.131-3.574s4.175.16,9.571,10.064,10.2,27.06,10.2,27.06l6.448,5.02Z" transform="translate(-457.041 -229.425)" fill="#536dfe"/>
        <path id="Path_291" data-name="Path 291" d="M566.55,368.067l-6.538,10.8-13.746-9.228-15.789-10.595-9.519-24.994-9.679-17.724,12.131-3.574s4.175.16,9.571,10.064,10.2,27.06,10.2,27.06l6.448,5.02Z" transform="translate(-457.041 -229.425)" opacity="0.2"/>
        <path id="Path_292" data-name="Path 292" d="M680.688,456.035l-16.747-.4-1.329-1.508-.939-1.066-1.028-1.165-1.141-1.292,1.944-3.015.925-1.437,3.748,2.461,2.658,1.742s2.226.742,4.875,1.86A32.391,32.391,0,0,1,680.688,456.035Z" transform="translate(-540.724 -304.74)" fill="#ffb8b8"/>
        <circle id="Ellipse_43" data-name="Ellipse 43" cx="11.483" cy="11.483" r="11.483" transform="translate(63.663 42.282)" fill="#ffb8b8"/>
        <path id="Path_293" data-name="Path 293" d="M537.37,252.116l-1.148,16.651,14.354,1.723s0-13.78,1.148-15.5S537.37,252.116,537.37,252.116Z" transform="translate(-471.123 -195.193)" fill="#ffb8b8"/>
        <path id="Path_294" data-name="Path 294" d="M548.159,286.619l-18.593-7.874s-8.882-6.853-14.092-1.786l-2.339,3.344s-14.247,7.66-14.247,13.976l1.615,31.959s-4.593,17.8,2.3,18.948l37.321,3.445a12.917,12.917,0,0,0,.574-14.354l1.722-18.948Z" transform="translate(-450.045 -208.164)" fill="#536dfe"/>
        <path id="Path_295" data-name="Path 295" d="M583.033,302.14l12.632-.574s.926.977,3.8,11.886S606,342.332,606,342.332l18.352,23.249-8.923,8.923-23.951-26.3L588.2,321.661Z" transform="translate(-497.551 -223.11)" fill="#536dfe"/>
        <path id="Path_296" data-name="Path 296" d="M535,436.631,493.722,433s-4.078,26.025-3.5,36.36,1.148,26.412,1.148,26.412l-4.593,70.049,17.8-2.3,2.3-57.992,7.464-31.58,8.613,40.192,5.742,51.676,15.5-1.722-5.168-62.585S543.617,445.244,535,436.631Z" transform="translate(-443.206 -297.313)" fill="#2f2e41"/>
        <path id="Path_297" data-name="Path 297" d="M595.835,727.483,601,729.206s10.909-2.871,8.038,4.593-10.909,6.316-10.909,6.316-9.761,7.464-13.78,1.722l2.3-12.058Z" transform="translate(-498.296 -463.57)" fill="#2f2e41"/>
        <path id="Path_298" data-name="Path 298" d="M499.575,727.483l5.168,1.723s10.909-2.871,8.038,4.593-10.909,6.316-10.909,6.316-9.761,7.464-13.78,1.722l2.3-12.058Z" transform="translate(-443.95 -463.57)" fill="#2f2e41"/>
        <path id="Path_299" data-name="Path 299" d="M529.041,235.355s-12.058-8.613-5.742-18.948c4.382-7.17,13.461-6.6,18.611-5.582a8.7,8.7,0,0,1,6.365,5.008c.861,2.01.861,4.019-2.584,4.019-6.89,0-3.445,5.168-3.445,5.168s-4.593,1.148-3.445,5.168S529.041,235.355,529.041,235.355Z" transform="translate(-462.795 -171.542)" fill="#2f2e41"/>
        <circle id="Ellipse_44" data-name="Ellipse 44" cx="1.409" cy="1.409" r="1.409" transform="translate(138.071 148.576)" fill="#fff"/>
        <path id="Path_300" data-name="Path 300" d="M685.542,459.418a1.865,1.865,0,0,0-.7-1.461,1.887,1.887,0,0,0-1.179-.418c-.023,0-.042,0-.066,0a1.87,1.87,0,0,0-3.518-.315,1.392,1.392,0,0,0-1.78.423,16.237,16.237,0,0,1-4.029-1.052,1.867,1.867,0,0,0-1.686,1.061,1.79,1.79,0,0,0-.193.817,1.851,1.851,0,0,0,.272.958,1.407,1.407,0,0,0-1.212,1.39,1.353,1.353,0,0,0,.08.46l2.63.066a1.264,1.264,0,0,0,.08-.268,1.94,1.94,0,0,0,.282.272l2.24.056.127-.1a.8.8,0,0,0,.07.1l3.029.07a.623.623,0,0,0,.052-.066.52.52,0,0,0,.038.07l2.437.056a1.386,1.386,0,0,0,.188-.526.189.189,0,0,0,.042.023,1.5,1.5,0,0,0-.023.249,1.547,1.547,0,0,0,.023.258l2.757.066a1.452,1.452,0,0,0,.038-.324,1.416,1.416,0,0,0-.3-.864A1.865,1.865,0,0,0,685.542,459.418Zm-5.03-.038a1.438,1.438,0,0,1-.277.258c.028.07.042.146.066.216a1.339,1.339,0,0,1,.418-.3,1.838,1.838,0,0,1-.206-.174Z" transform="translate(-547.47 -310.373)" fill="#fff"/>
        <circle id="Ellipse_45" data-name="Ellipse 45" cx="1.409" cy="1.409" r="1.409" transform="translate(150.752 149.045)" fill="#fff"/>
        <path id="Path_301" data-name="Path 301" d="M714.663,460.5a1.865,1.865,0,0,0-.7-1.461,1.887,1.887,0,0,0-1.179-.418c-.023,0-.042,0-.066,0a1.87,1.87,0,0,0-3.518-.315,1.392,1.392,0,0,0-1.78.423,16.235,16.235,0,0,1-4.029-1.052,1.867,1.867,0,0,0-1.686,1.061,1.789,1.789,0,0,0-.193.817,1.851,1.851,0,0,0,.272.958,1.407,1.407,0,0,0-1.212,1.39,1.354,1.354,0,0,0,.08.46l2.63.066a1.265,1.265,0,0,0,.08-.268,1.939,1.939,0,0,0,.282.272l2.24.056.127-.1a.792.792,0,0,0,.07.1l3.029.07a.628.628,0,0,0,.052-.066.516.516,0,0,0,.038.07l2.437.056a1.385,1.385,0,0,0,.188-.526.191.191,0,0,0,.042.023,1.5,1.5,0,0,0-.023.249,1.552,1.552,0,0,0,.023.258l2.757.066a1.451,1.451,0,0,0,.038-.324,1.416,1.416,0,0,0-.3-.864A1.864,1.864,0,0,0,714.663,460.5Zm-5.03-.038a1.435,1.435,0,0,1-.277.258c.028.07.042.146.066.216a1.34,1.34,0,0,1,.418-.3,1.83,1.83,0,0,1-.207-.174Z" transform="translate(-563.911 -310.982)" fill="#fff"/>
        <circle id="Ellipse_46" data-name="Ellipse 46" cx="1.057" cy="1.057" r="1.057" transform="translate(130.792 148.81)" fill="#fff"/>
        <path id="Path_302" data-name="Path 302" d="M673.392,460.753a1.4,1.4,0,0,0-.525-1.1,1.415,1.415,0,0,0-.884-.314c-.018,0-.032,0-.049,0a1.4,1.4,0,0,0-2.638-.236,1.044,1.044,0,0,0-1.335.317,12.175,12.175,0,0,1-3.022-.789,1.4,1.4,0,0,0-1.265.8,1.343,1.343,0,0,0-.144.613,1.39,1.39,0,0,0,.2.719,1.055,1.055,0,0,0-.909,1.043,1.014,1.014,0,0,0,.06.345l1.972.049a.948.948,0,0,0,.06-.2,1.454,1.454,0,0,0,.211.2l1.68.042.1-.074a.582.582,0,0,0,.053.077l2.272.053a.473.473,0,0,0,.039-.049.376.376,0,0,0,.028.053l1.828.042a1.038,1.038,0,0,0,.141-.395.142.142,0,0,0,.032.018,1.115,1.115,0,0,0-.018.187,1.172,1.172,0,0,0,.018.194l2.067.049a1.093,1.093,0,0,0,.028-.243,1.062,1.062,0,0,0-.225-.648A1.4,1.4,0,0,0,673.392,460.753Zm-3.772-.028a1.077,1.077,0,0,1-.208.194c.021.053.032.109.049.162a1,1,0,0,1,.314-.225,1.374,1.374,0,0,1-.155-.13Z" transform="translate(-542.599 -311.591)" fill="#fff"/>
        <circle id="Ellipse_47" data-name="Ellipse 47" cx="1.057" cy="1.057" r="1.057" transform="translate(115.764 148.81)" fill="#fff"/>
        <path id="Path_303" data-name="Path 303" d="M638.878,460.753a1.4,1.4,0,0,0-.525-1.1,1.414,1.414,0,0,0-.884-.313c-.018,0-.032,0-.049,0a1.4,1.4,0,0,0-2.638-.236,1.044,1.044,0,0,0-1.335.317,12.176,12.176,0,0,1-3.022-.789,1.4,1.4,0,0,0-1.265.8,1.343,1.343,0,0,0-.144.613,1.389,1.389,0,0,0,.2.719,1.055,1.055,0,0,0-.909,1.043,1.015,1.015,0,0,0,.06.345l1.972.049a.945.945,0,0,0,.06-.2,1.448,1.448,0,0,0,.211.2l1.68.042.1-.074a.591.591,0,0,0,.053.077l2.272.053a.477.477,0,0,0,.039-.049.381.381,0,0,0,.028.053l1.828.042a1.039,1.039,0,0,0,.141-.395.144.144,0,0,0,.032.018,1.113,1.113,0,0,0-.018.187,1.171,1.171,0,0,0,.018.194l2.068.049a1.1,1.1,0,0,0,.028-.243,1.062,1.062,0,0,0-.226-.648A1.4,1.4,0,0,0,638.878,460.753Zm-3.772-.028a1.077,1.077,0,0,1-.208.194c.021.053.032.109.049.162a1,1,0,0,1,.313-.225,1.381,1.381,0,0,1-.155-.13Z" transform="translate(-523.114 -311.591)" fill="#fff"/>
        <path id="Path_304" data-name="Path 304" d="M762.772,429.223v-2.818h-2.348v.47c-.259,0-.47.315-.47.7s.21.7.47.7v.939h-1.879v9.393h6.105v-9.393Z" transform="translate(-596.64 -293.591)" fill="#3f3d56"/>
      </g>
    </g>
  </g>
</svg>
